<svg width="540" height="480" viewBox="0 0 540 480" fill="none" xmlns="http://www.w3.org/2000/svg">
<rect width="471" height="420" rx="4" fill="#F1CE51"/>
<g clip-path="url(#clip0)">
<circle cx="537" cy="477" r="3" transform="rotate(180 537 477)" fill="#423B3B" fill-opacity="0.4"/>
<circle cx="519" cy="477" r="3" transform="rotate(180 519 477)" fill="#423B3B" fill-opacity="0.4"/>
<circle cx="501" cy="477" r="3" transform="rotate(180 501 477)" fill="#423B3B" fill-opacity="0.4"/>
<circle cx="483" cy="477" r="3" transform="rotate(180 483 477)" fill="#423B3B" fill-opacity="0.4"/>
<circle cx="465" cy="477" r="3" transform="rotate(180 465 477)" fill="#423B3B" fill-opacity="0.4"/>
<circle cx="447" cy="477" r="3" transform="rotate(180 447 477)" fill="#423B3B" fill-opacity="0.4"/>
<circle cx="429" cy="477" r="3" transform="rotate(180 429 477)" fill="#423B3B" fill-opacity="0.4"/>
<circle cx="411" cy="477" r="3" transform="rotate(180 411 477)" fill="#423B3B" fill-opacity="0.4"/>
<circle cx="393" cy="477" r="3" transform="rotate(180 393 477)" fill="#423B3B" fill-opacity="0.4"/>
<circle cx="375" cy="477" r="3" transform="rotate(180 375 477)" fill="#423B3B" fill-opacity="0.4"/>
<circle cx="357" cy="477" r="3" transform="rotate(180 357 477)" fill="#423B3B" fill-opacity="0.4"/>
<circle cx="339" cy="477" r="3" transform="rotate(180 339 477)" fill="#423B3B" fill-opacity="0.4"/>
<circle cx="321" cy="477" r="3" transform="rotate(180 321 477)" fill="#423B3B" fill-opacity="0.4"/>
<circle cx="303" cy="477" r="3" transform="rotate(180 303 477)" fill="#423B3B" fill-opacity="0.4"/>
<circle cx="285" cy="477" r="3" transform="rotate(180 285 477)" fill="#423B3B" fill-opacity="0.4"/>
<circle cx="267" cy="477" r="3" transform="rotate(180 267 477)" fill="#423B3B" fill-opacity="0.4"/>
<circle cx="249" cy="477" r="3" transform="rotate(180 249 477)" fill="#423B3B" fill-opacity="0.4"/>
<circle cx="231" cy="477" r="3" transform="rotate(180 231 477)" fill="#423B3B" fill-opacity="0.4"/>
<circle cx="213" cy="477" r="3" transform="rotate(180 213 477)" fill="#423B3B" fill-opacity="0.4"/>
<circle cx="195" cy="477" r="3" transform="rotate(180 195 477)" fill="#423B3B" fill-opacity="0.4"/>
<circle cx="537" cy="459" r="3" transform="rotate(180 537 459)" fill="#423B3B" fill-opacity="0.4"/>
<circle cx="519" cy="459" r="3" transform="rotate(180 519 459)" fill="#423B3B" fill-opacity="0.4"/>
<circle cx="501" cy="459" r="3" transform="rotate(180 501 459)" fill="#423B3B" fill-opacity="0.4"/>
<circle cx="483" cy="459" r="3" transform="rotate(180 483 459)" fill="#423B3B" fill-opacity="0.4"/>
<circle cx="465" cy="459" r="3" transform="rotate(180 465 459)" fill="#423B3B" fill-opacity="0.4"/>
<circle cx="447" cy="459" r="3" transform="rotate(180 447 459)" fill="#423B3B" fill-opacity="0.4"/>
<circle cx="429" cy="459" r="3" transform="rotate(180 429 459)" fill="#423B3B" fill-opacity="0.4"/>
<circle cx="411" cy="459" r="3" transform="rotate(180 411 459)" fill="#423B3B" fill-opacity="0.4"/>
<circle cx="393" cy="459" r="3" transform="rotate(180 393 459)" fill="#423B3B" fill-opacity="0.4"/>
<circle cx="375" cy="459" r="3" transform="rotate(180 375 459)" fill="#423B3B" fill-opacity="0.4"/>
<circle cx="357" cy="459" r="3" transform="rotate(180 357 459)" fill="#423B3B" fill-opacity="0.4"/>
<circle cx="339" cy="459" r="3" transform="rotate(180 339 459)" fill="#423B3B" fill-opacity="0.4"/>
<circle cx="321" cy="459" r="3" transform="rotate(180 321 459)" fill="#423B3B" fill-opacity="0.4"/>
<circle cx="303" cy="459" r="3" transform="rotate(180 303 459)" fill="#423B3B" fill-opacity="0.4"/>
<circle cx="285" cy="459" r="3" transform="rotate(180 285 459)" fill="#423B3B" fill-opacity="0.4"/>
<circle cx="267" cy="459" r="3" transform="rotate(180 267 459)" fill="#423B3B" fill-opacity="0.4"/>
<circle cx="249" cy="459" r="3" transform="rotate(180 249 459)" fill="#423B3B" fill-opacity="0.4"/>
<circle cx="231" cy="459" r="3" transform="rotate(180 231 459)" fill="#423B3B" fill-opacity="0.4"/>
<circle cx="213" cy="459" r="3" transform="rotate(180 213 459)" fill="#423B3B" fill-opacity="0.4"/>
<circle cx="195" cy="459" r="3" transform="rotate(180 195 459)" fill="#423B3B" fill-opacity="0.4"/>
<circle cx="537" cy="441" r="3" transform="rotate(180 537 441)" fill="#423B3B" fill-opacity="0.4"/>
<circle cx="519" cy="441" r="3" transform="rotate(180 519 441)" fill="#423B3B" fill-opacity="0.4"/>
<circle cx="501" cy="441" r="3" transform="rotate(180 501 441)" fill="#423B3B" fill-opacity="0.4"/>
<circle cx="483" cy="441" r="3" transform="rotate(180 483 441)" fill="#423B3B" fill-opacity="0.4"/>
<circle cx="465" cy="441" r="3" transform="rotate(180 465 441)" fill="#423B3B" fill-opacity="0.4"/>
<circle cx="447" cy="441" r="3" transform="rotate(180 447 441)" fill="#423B3B" fill-opacity="0.4"/>
<circle cx="429" cy="441" r="3" transform="rotate(180 429 441)" fill="#423B3B" fill-opacity="0.4"/>
<circle cx="411" cy="441" r="3" transform="rotate(180 411 441)" fill="#423B3B" fill-opacity="0.4"/>
<circle cx="393" cy="441" r="3" transform="rotate(180 393 441)" fill="#423B3B" fill-opacity="0.4"/>
<circle cx="375" cy="441" r="3" transform="rotate(180 375 441)" fill="#423B3B" fill-opacity="0.4"/>
<circle cx="357" cy="441" r="3" transform="rotate(180 357 441)" fill="#423B3B" fill-opacity="0.4"/>
<circle cx="339" cy="441" r="3" transform="rotate(180 339 441)" fill="#423B3B" fill-opacity="0.4"/>
<circle cx="321" cy="441" r="3" transform="rotate(180 321 441)" fill="#423B3B" fill-opacity="0.4"/>
<circle cx="303" cy="441" r="3" transform="rotate(180 303 441)" fill="#423B3B" fill-opacity="0.4"/>
<circle cx="285" cy="441" r="3" transform="rotate(180 285 441)" fill="#423B3B" fill-opacity="0.4"/>
<circle cx="267" cy="441" r="3" transform="rotate(180 267 441)" fill="#423B3B" fill-opacity="0.4"/>
<circle cx="249" cy="441" r="3" transform="rotate(180 249 441)" fill="#423B3B" fill-opacity="0.4"/>
<circle cx="231" cy="441" r="3" transform="rotate(180 231 441)" fill="#423B3B" fill-opacity="0.4"/>
<circle cx="213" cy="441" r="3" transform="rotate(180 213 441)" fill="#423B3B" fill-opacity="0.4"/>
<circle cx="195" cy="441" r="3" transform="rotate(180 195 441)" fill="#423B3B" fill-opacity="0.4"/>
<g clip-path="url(#clip1)">
<circle cx="537" cy="423" r="3" transform="rotate(180 537 423)" fill="#423B3B" fill-opacity="0.4"/>
<circle cx="519" cy="423" r="3" transform="rotate(180 519 423)" fill="#423B3B" fill-opacity="0.4"/>
<circle cx="501" cy="423" r="3" transform="rotate(180 501 423)" fill="#423B3B" fill-opacity="0.4"/>
<circle cx="483" cy="423" r="3" transform="rotate(180 483 423)" fill="#423B3B" fill-opacity="0.4"/>
<circle cx="465" cy="423" r="3" transform="rotate(180 465 423)" fill="#423B3B" fill-opacity="0.4"/>
<circle cx="447" cy="423" r="3" transform="rotate(180 447 423)" fill="#423B3B" fill-opacity="0.4"/>
<circle cx="429" cy="423" r="3" transform="rotate(180 429 423)" fill="#423B3B" fill-opacity="0.4"/>
<circle cx="411" cy="423" r="3" transform="rotate(180 411 423)" fill="#423B3B" fill-opacity="0.4"/>
<circle cx="393" cy="423" r="3" transform="rotate(180 393 423)" fill="#423B3B" fill-opacity="0.4"/>
<circle cx="375" cy="423" r="3" transform="rotate(180 375 423)" fill="#423B3B" fill-opacity="0.4"/>
<circle cx="357" cy="423" r="3" transform="rotate(180 357 423)" fill="#423B3B" fill-opacity="0.4"/>
<circle cx="339" cy="423" r="3" transform="rotate(180 339 423)" fill="#423B3B" fill-opacity="0.4"/>
<circle cx="321" cy="423" r="3" transform="rotate(180 321 423)" fill="#423B3B" fill-opacity="0.4"/>
<circle cx="303" cy="423" r="3" transform="rotate(180 303 423)" fill="#423B3B" fill-opacity="0.4"/>
<circle cx="285" cy="423" r="3" transform="rotate(180 285 423)" fill="#423B3B" fill-opacity="0.4"/>
<circle cx="267" cy="423" r="3" transform="rotate(180 267 423)" fill="#423B3B" fill-opacity="0.4"/>
<circle cx="249" cy="423" r="3" transform="rotate(180 249 423)" fill="#423B3B" fill-opacity="0.4"/>
<circle cx="231" cy="423" r="3" transform="rotate(180 231 423)" fill="#423B3B" fill-opacity="0.4"/>
<circle cx="213" cy="423" r="3" transform="rotate(180 213 423)" fill="#423B3B" fill-opacity="0.4"/>
<circle cx="195" cy="423" r="3" transform="rotate(180 195 423)" fill="#423B3B" fill-opacity="0.4"/>
</g>
<circle cx="537" cy="405" r="3" transform="rotate(180 537 405)" fill="#423B3B" fill-opacity="0.4"/>
<circle cx="519" cy="405" r="3" transform="rotate(180 519 405)" fill="#423B3B" fill-opacity="0.4"/>
<circle cx="501" cy="405" r="3" transform="rotate(180 501 405)" fill="#423B3B" fill-opacity="0.4"/>
<circle cx="483" cy="405" r="3" transform="rotate(180 483 405)" fill="#423B3B" fill-opacity="0.4"/>
<circle cx="465" cy="405" r="3" transform="rotate(180 465 405)" fill="#423B3B" fill-opacity="0.4"/>
<circle cx="447" cy="405" r="3" transform="rotate(180 447 405)" fill="#423B3B" fill-opacity="0.4"/>
<circle cx="429" cy="405" r="3" transform="rotate(180 429 405)" fill="#423B3B" fill-opacity="0.4"/>
<circle cx="411" cy="405" r="3" transform="rotate(180 411 405)" fill="#423B3B" fill-opacity="0.4"/>
<circle cx="393" cy="405" r="3" transform="rotate(180 393 405)" fill="#423B3B" fill-opacity="0.4"/>
<circle cx="375" cy="405" r="3" transform="rotate(180 375 405)" fill="#423B3B" fill-opacity="0.4"/>
<circle cx="357" cy="405" r="3" transform="rotate(180 357 405)" fill="#423B3B" fill-opacity="0.4"/>
<circle cx="339" cy="405" r="3" transform="rotate(180 339 405)" fill="#423B3B" fill-opacity="0.4"/>
<circle cx="321" cy="405" r="3" transform="rotate(180 321 405)" fill="#423B3B" fill-opacity="0.4"/>
<circle cx="303" cy="405" r="3" transform="rotate(180 303 405)" fill="#423B3B" fill-opacity="0.4"/>
<circle cx="285" cy="405" r="3" transform="rotate(180 285 405)" fill="#423B3B" fill-opacity="0.4"/>
<circle cx="267" cy="405" r="3" transform="rotate(180 267 405)" fill="#423B3B" fill-opacity="0.4"/>
<circle cx="249" cy="405" r="3" transform="rotate(180 249 405)" fill="#423B3B" fill-opacity="0.4"/>
<circle cx="231" cy="405" r="3" transform="rotate(180 231 405)" fill="#423B3B" fill-opacity="0.4"/>
<circle cx="213" cy="405" r="3" transform="rotate(180 213 405)" fill="#423B3B" fill-opacity="0.4"/>
<circle cx="195" cy="405" r="3" transform="rotate(180 195 405)" fill="#423B3B" fill-opacity="0.4"/>
<circle cx="537" cy="387" r="3" transform="rotate(180 537 387)" fill="#423B3B" fill-opacity="0.4"/>
<circle cx="519" cy="387" r="3" transform="rotate(180 519 387)" fill="#423B3B" fill-opacity="0.4"/>
<circle cx="501" cy="387" r="3" transform="rotate(180 501 387)" fill="#423B3B" fill-opacity="0.4"/>
<circle cx="483" cy="387" r="3" transform="rotate(180 483 387)" fill="#423B3B" fill-opacity="0.4"/>
<circle cx="465" cy="387" r="3" transform="rotate(180 465 387)" fill="#423B3B" fill-opacity="0.4"/>
<circle cx="447" cy="387" r="3" transform="rotate(180 447 387)" fill="#423B3B" fill-opacity="0.4"/>
<circle cx="429" cy="387" r="3" transform="rotate(180 429 387)" fill="#423B3B" fill-opacity="0.4"/>
<circle cx="411" cy="387" r="3" transform="rotate(180 411 387)" fill="#423B3B" fill-opacity="0.4"/>
<circle cx="393" cy="387" r="3" transform="rotate(180 393 387)" fill="#423B3B" fill-opacity="0.4"/>
<circle cx="375" cy="387" r="3" transform="rotate(180 375 387)" fill="#423B3B" fill-opacity="0.4"/>
<circle cx="357" cy="387" r="3" transform="rotate(180 357 387)" fill="#423B3B" fill-opacity="0.4"/>
<circle cx="339" cy="387" r="3" transform="rotate(180 339 387)" fill="#423B3B" fill-opacity="0.4"/>
<circle cx="321" cy="387" r="3" transform="rotate(180 321 387)" fill="#423B3B" fill-opacity="0.4"/>
<circle cx="303" cy="387" r="3" transform="rotate(180 303 387)" fill="#423B3B" fill-opacity="0.4"/>
<circle cx="285" cy="387" r="3" transform="rotate(180 285 387)" fill="#423B3B" fill-opacity="0.4"/>
<circle cx="267" cy="387" r="3" transform="rotate(180 267 387)" fill="#423B3B" fill-opacity="0.4"/>
<circle cx="249" cy="387" r="3" transform="rotate(180 249 387)" fill="#423B3B" fill-opacity="0.4"/>
<circle cx="231" cy="387" r="3" transform="rotate(180 231 387)" fill="#423B3B" fill-opacity="0.4"/>
<circle cx="213" cy="387" r="3" transform="rotate(180 213 387)" fill="#423B3B" fill-opacity="0.4"/>
<circle cx="195" cy="387" r="3" transform="rotate(180 195 387)" fill="#423B3B" fill-opacity="0.4"/>
<circle cx="537" cy="369" r="3" transform="rotate(180 537 369)" fill="#423B3B" fill-opacity="0.4"/>
<circle cx="519" cy="369" r="3" transform="rotate(180 519 369)" fill="#423B3B" fill-opacity="0.4"/>
<circle cx="501" cy="369" r="3" transform="rotate(180 501 369)" fill="#423B3B" fill-opacity="0.4"/>
<circle cx="483" cy="369" r="3" transform="rotate(180 483 369)" fill="#423B3B" fill-opacity="0.4"/>
<circle cx="465" cy="369" r="3" transform="rotate(180 465 369)" fill="#423B3B" fill-opacity="0.4"/>
<circle cx="447" cy="369" r="3" transform="rotate(180 447 369)" fill="#423B3B" fill-opacity="0.4"/>
<circle cx="429" cy="369" r="3" transform="rotate(180 429 369)" fill="#423B3B" fill-opacity="0.4"/>
<circle cx="411" cy="369" r="3" transform="rotate(180 411 369)" fill="#423B3B" fill-opacity="0.4"/>
<circle cx="393" cy="369" r="3" transform="rotate(180 393 369)" fill="#423B3B" fill-opacity="0.4"/>
<circle cx="375" cy="369" r="3" transform="rotate(180 375 369)" fill="#423B3B" fill-opacity="0.4"/>
<circle cx="357" cy="369" r="3" transform="rotate(180 357 369)" fill="#423B3B" fill-opacity="0.4"/>
<circle cx="339" cy="369" r="3" transform="rotate(180 339 369)" fill="#423B3B" fill-opacity="0.4"/>
<circle cx="321" cy="369" r="3" transform="rotate(180 321 369)" fill="#423B3B" fill-opacity="0.4"/>
<circle cx="303" cy="369" r="3" transform="rotate(180 303 369)" fill="#423B3B" fill-opacity="0.4"/>
<circle cx="285" cy="369" r="3" transform="rotate(180 285 369)" fill="#423B3B" fill-opacity="0.4"/>
<circle cx="267" cy="369" r="3" transform="rotate(180 267 369)" fill="#423B3B" fill-opacity="0.4"/>
<circle cx="249" cy="369" r="3" transform="rotate(180 249 369)" fill="#423B3B" fill-opacity="0.4"/>
<circle cx="231" cy="369" r="3" transform="rotate(180 231 369)" fill="#423B3B" fill-opacity="0.4"/>
<circle cx="213" cy="369" r="3" transform="rotate(180 213 369)" fill="#423B3B" fill-opacity="0.4"/>
<circle cx="195" cy="369" r="3" transform="rotate(180 195 369)" fill="#423B3B" fill-opacity="0.4"/>
<circle cx="537" cy="351" r="3" transform="rotate(180 537 351)" fill="#423B3B" fill-opacity="0.4"/>
<circle cx="519" cy="351" r="3" transform="rotate(180 519 351)" fill="#423B3B" fill-opacity="0.4"/>
<circle cx="501" cy="351" r="3" transform="rotate(180 501 351)" fill="#423B3B" fill-opacity="0.4"/>
<circle cx="483" cy="351" r="3" transform="rotate(180 483 351)" fill="#423B3B" fill-opacity="0.4"/>
<circle cx="465" cy="351" r="3" transform="rotate(180 465 351)" fill="#423B3B" fill-opacity="0.4"/>
<circle cx="447" cy="351" r="3" transform="rotate(180 447 351)" fill="#423B3B" fill-opacity="0.4"/>
<circle cx="429" cy="351" r="3" transform="rotate(180 429 351)" fill="#423B3B" fill-opacity="0.4"/>
<circle cx="411" cy="351" r="3" transform="rotate(180 411 351)" fill="#423B3B" fill-opacity="0.4"/>
<circle cx="393" cy="351" r="3" transform="rotate(180 393 351)" fill="#423B3B" fill-opacity="0.4"/>
<circle cx="375" cy="351" r="3" transform="rotate(180 375 351)" fill="#423B3B" fill-opacity="0.4"/>
<circle cx="357" cy="351" r="3" transform="rotate(180 357 351)" fill="#423B3B" fill-opacity="0.4"/>
<circle cx="339" cy="351" r="3" transform="rotate(180 339 351)" fill="#423B3B" fill-opacity="0.4"/>
<circle cx="321" cy="351" r="3" transform="rotate(180 321 351)" fill="#423B3B" fill-opacity="0.4"/>
<circle cx="303" cy="351" r="3" transform="rotate(180 303 351)" fill="#423B3B" fill-opacity="0.4"/>
<circle cx="285" cy="351" r="3" transform="rotate(180 285 351)" fill="#423B3B" fill-opacity="0.4"/>
<circle cx="267" cy="351" r="3" transform="rotate(180 267 351)" fill="#423B3B" fill-opacity="0.4"/>
<circle cx="249" cy="351" r="3" transform="rotate(180 249 351)" fill="#423B3B" fill-opacity="0.4"/>
<circle cx="231" cy="351" r="3" transform="rotate(180 231 351)" fill="#423B3B" fill-opacity="0.4"/>
<circle cx="213" cy="351" r="3" transform="rotate(180 213 351)" fill="#423B3B" fill-opacity="0.4"/>
<circle cx="195" cy="351" r="3" transform="rotate(180 195 351)" fill="#423B3B" fill-opacity="0.4"/>
<circle cx="537" cy="333" r="3" transform="rotate(180 537 333)" fill="#423B3B" fill-opacity="0.4"/>
<circle cx="519" cy="333" r="3" transform="rotate(180 519 333)" fill="#423B3B" fill-opacity="0.4"/>
<circle cx="501" cy="333" r="3" transform="rotate(180 501 333)" fill="#423B3B" fill-opacity="0.4"/>
<circle cx="483" cy="333" r="3" transform="rotate(180 483 333)" fill="#423B3B" fill-opacity="0.4"/>
<circle cx="465" cy="333" r="3" transform="rotate(180 465 333)" fill="#423B3B" fill-opacity="0.4"/>
<circle cx="447" cy="333" r="3" transform="rotate(180 447 333)" fill="#423B3B" fill-opacity="0.4"/>
<circle cx="429" cy="333" r="3" transform="rotate(180 429 333)" fill="#423B3B" fill-opacity="0.4"/>
<circle cx="411" cy="333" r="3" transform="rotate(180 411 333)" fill="#423B3B" fill-opacity="0.4"/>
<circle cx="393" cy="333" r="3" transform="rotate(180 393 333)" fill="#423B3B" fill-opacity="0.4"/>
<circle cx="375" cy="333" r="3" transform="rotate(180 375 333)" fill="#423B3B" fill-opacity="0.4"/>
<circle cx="357" cy="333" r="3" transform="rotate(180 357 333)" fill="#423B3B" fill-opacity="0.4"/>
<circle cx="339" cy="333" r="3" transform="rotate(180 339 333)" fill="#423B3B" fill-opacity="0.4"/>
<circle cx="321" cy="333" r="3" transform="rotate(180 321 333)" fill="#423B3B" fill-opacity="0.4"/>
<circle cx="303" cy="333" r="3" transform="rotate(180 303 333)" fill="#423B3B" fill-opacity="0.4"/>
<circle cx="285" cy="333" r="3" transform="rotate(180 285 333)" fill="#423B3B" fill-opacity="0.4"/>
<circle cx="267" cy="333" r="3" transform="rotate(180 267 333)" fill="#423B3B" fill-opacity="0.4"/>
<circle cx="249" cy="333" r="3" transform="rotate(180 249 333)" fill="#423B3B" fill-opacity="0.4"/>
<circle cx="231" cy="333" r="3" transform="rotate(180 231 333)" fill="#423B3B" fill-opacity="0.4"/>
<circle cx="213" cy="333" r="3" transform="rotate(180 213 333)" fill="#423B3B" fill-opacity="0.4"/>
<circle cx="195" cy="333" r="3" transform="rotate(180 195 333)" fill="#423B3B" fill-opacity="0.4"/>
<circle cx="537" cy="315" r="3" transform="rotate(180 537 315)" fill="#423B3B" fill-opacity="0.4"/>
<circle cx="519" cy="315" r="3" transform="rotate(180 519 315)" fill="#423B3B" fill-opacity="0.4"/>
<circle cx="501" cy="315" r="3" transform="rotate(180 501 315)" fill="#423B3B" fill-opacity="0.4"/>
<circle cx="483" cy="315" r="3" transform="rotate(180 483 315)" fill="#423B3B" fill-opacity="0.4"/>
<circle cx="465" cy="315" r="3" transform="rotate(180 465 315)" fill="#423B3B" fill-opacity="0.4"/>
<circle cx="447" cy="315" r="3" transform="rotate(180 447 315)" fill="#423B3B" fill-opacity="0.4"/>
<circle cx="429" cy="315" r="3" transform="rotate(180 429 315)" fill="#423B3B" fill-opacity="0.4"/>
<circle cx="411" cy="315" r="3" transform="rotate(180 411 315)" fill="#423B3B" fill-opacity="0.4"/>
<circle cx="393" cy="315" r="3" transform="rotate(180 393 315)" fill="#423B3B" fill-opacity="0.4"/>
<circle cx="375" cy="315" r="3" transform="rotate(180 375 315)" fill="#423B3B" fill-opacity="0.4"/>
<circle cx="357" cy="315" r="3" transform="rotate(180 357 315)" fill="#423B3B" fill-opacity="0.4"/>
<circle cx="339" cy="315" r="3" transform="rotate(180 339 315)" fill="#423B3B" fill-opacity="0.4"/>
<circle cx="321" cy="315" r="3" transform="rotate(180 321 315)" fill="#423B3B" fill-opacity="0.4"/>
<circle cx="303" cy="315" r="3" transform="rotate(180 303 315)" fill="#423B3B" fill-opacity="0.4"/>
<circle cx="285" cy="315" r="3" transform="rotate(180 285 315)" fill="#423B3B" fill-opacity="0.4"/>
<circle cx="267" cy="315" r="3" transform="rotate(180 267 315)" fill="#423B3B" fill-opacity="0.4"/>
<circle cx="249" cy="315" r="3" transform="rotate(180 249 315)" fill="#423B3B" fill-opacity="0.4"/>
<circle cx="231" cy="315" r="3" transform="rotate(180 231 315)" fill="#423B3B" fill-opacity="0.4"/>
<circle cx="213" cy="315" r="3" transform="rotate(180 213 315)" fill="#423B3B" fill-opacity="0.4"/>
<circle cx="195" cy="315" r="3" transform="rotate(180 195 315)" fill="#423B3B" fill-opacity="0.4"/>
<circle cx="537" cy="297" r="3" transform="rotate(180 537 297)" fill="#423B3B" fill-opacity="0.4"/>
<circle cx="519" cy="297" r="3" transform="rotate(180 519 297)" fill="#423B3B" fill-opacity="0.4"/>
<circle cx="501" cy="297" r="3" transform="rotate(180 501 297)" fill="#423B3B" fill-opacity="0.4"/>
<circle cx="483" cy="297" r="3" transform="rotate(180 483 297)" fill="#423B3B" fill-opacity="0.4"/>
<circle cx="465" cy="297" r="3" transform="rotate(180 465 297)" fill="#423B3B" fill-opacity="0.4"/>
<circle cx="447" cy="297" r="3" transform="rotate(180 447 297)" fill="#423B3B" fill-opacity="0.4"/>
<circle cx="429" cy="297" r="3" transform="rotate(180 429 297)" fill="#423B3B" fill-opacity="0.4"/>
<circle cx="411" cy="297" r="3" transform="rotate(180 411 297)" fill="#423B3B" fill-opacity="0.4"/>
<circle cx="393" cy="297" r="3" transform="rotate(180 393 297)" fill="#423B3B" fill-opacity="0.4"/>
<circle cx="375" cy="297" r="3" transform="rotate(180 375 297)" fill="#423B3B" fill-opacity="0.4"/>
<circle cx="357" cy="297" r="3" transform="rotate(180 357 297)" fill="#423B3B" fill-opacity="0.4"/>
<circle cx="339" cy="297" r="3" transform="rotate(180 339 297)" fill="#423B3B" fill-opacity="0.4"/>
<circle cx="321" cy="297" r="3" transform="rotate(180 321 297)" fill="#423B3B" fill-opacity="0.4"/>
<circle cx="303" cy="297" r="3" transform="rotate(180 303 297)" fill="#423B3B" fill-opacity="0.4"/>
<circle cx="285" cy="297" r="3" transform="rotate(180 285 297)" fill="#423B3B" fill-opacity="0.4"/>
<circle cx="267" cy="297" r="3" transform="rotate(180 267 297)" fill="#423B3B" fill-opacity="0.4"/>
<circle cx="249" cy="297" r="3" transform="rotate(180 249 297)" fill="#423B3B" fill-opacity="0.4"/>
<circle cx="231" cy="297" r="3" transform="rotate(180 231 297)" fill="#423B3B" fill-opacity="0.4"/>
<circle cx="213" cy="297" r="3" transform="rotate(180 213 297)" fill="#423B3B" fill-opacity="0.4"/>
<circle cx="195" cy="297" r="3" transform="rotate(180 195 297)" fill="#423B3B" fill-opacity="0.4"/>
<circle cx="537" cy="279" r="3" transform="rotate(180 537 279)" fill="#423B3B" fill-opacity="0.4"/>
<circle cx="519" cy="279" r="3" transform="rotate(180 519 279)" fill="#423B3B" fill-opacity="0.4"/>
<circle cx="501" cy="279" r="3" transform="rotate(180 501 279)" fill="#423B3B" fill-opacity="0.4"/>
<circle cx="483" cy="279" r="3" transform="rotate(180 483 279)" fill="#423B3B" fill-opacity="0.4"/>
<circle cx="465" cy="279" r="3" transform="rotate(180 465 279)" fill="#423B3B" fill-opacity="0.4"/>
<circle cx="447" cy="279" r="3" transform="rotate(180 447 279)" fill="#423B3B" fill-opacity="0.4"/>
<circle cx="429" cy="279" r="3" transform="rotate(180 429 279)" fill="#423B3B" fill-opacity="0.4"/>
<circle cx="411" cy="279" r="3" transform="rotate(180 411 279)" fill="#423B3B" fill-opacity="0.4"/>
<circle cx="393" cy="279" r="3" transform="rotate(180 393 279)" fill="#423B3B" fill-opacity="0.4"/>
<circle cx="375" cy="279" r="3" transform="rotate(180 375 279)" fill="#423B3B" fill-opacity="0.4"/>
<circle cx="357" cy="279" r="3" transform="rotate(180 357 279)" fill="#423B3B" fill-opacity="0.4"/>
<circle cx="339" cy="279" r="3" transform="rotate(180 339 279)" fill="#423B3B" fill-opacity="0.4"/>
<circle cx="321" cy="279" r="3" transform="rotate(180 321 279)" fill="#423B3B" fill-opacity="0.4"/>
<circle cx="303" cy="279" r="3" transform="rotate(180 303 279)" fill="#423B3B" fill-opacity="0.4"/>
<circle cx="285" cy="279" r="3" transform="rotate(180 285 279)" fill="#423B3B" fill-opacity="0.4"/>
<circle cx="267" cy="279" r="3" transform="rotate(180 267 279)" fill="#423B3B" fill-opacity="0.4"/>
<circle cx="249" cy="279" r="3" transform="rotate(180 249 279)" fill="#423B3B" fill-opacity="0.4"/>
<circle cx="231" cy="279" r="3" transform="rotate(180 231 279)" fill="#423B3B" fill-opacity="0.4"/>
<circle cx="213" cy="279" r="3" transform="rotate(180 213 279)" fill="#423B3B" fill-opacity="0.4"/>
<circle cx="195" cy="279" r="3" transform="rotate(180 195 279)" fill="#423B3B" fill-opacity="0.4"/>
<circle cx="537" cy="261" r="3" transform="rotate(180 537 261)" fill="#423B3B" fill-opacity="0.4"/>
<circle cx="519" cy="261" r="3" transform="rotate(180 519 261)" fill="#423B3B" fill-opacity="0.4"/>
<circle cx="501" cy="261" r="3" transform="rotate(180 501 261)" fill="#423B3B" fill-opacity="0.4"/>
<circle cx="483" cy="261" r="3" transform="rotate(180 483 261)" fill="#423B3B" fill-opacity="0.4"/>
<circle cx="465" cy="261" r="3" transform="rotate(180 465 261)" fill="#423B3B" fill-opacity="0.4"/>
<circle cx="447" cy="261" r="3" transform="rotate(180 447 261)" fill="#423B3B" fill-opacity="0.4"/>
<circle cx="429" cy="261" r="3" transform="rotate(180 429 261)" fill="#423B3B" fill-opacity="0.4"/>
<circle cx="411" cy="261" r="3" transform="rotate(180 411 261)" fill="#423B3B" fill-opacity="0.4"/>
<circle cx="393" cy="261" r="3" transform="rotate(180 393 261)" fill="#423B3B" fill-opacity="0.4"/>
<circle cx="375" cy="261" r="3" transform="rotate(180 375 261)" fill="#423B3B" fill-opacity="0.4"/>
<circle cx="357" cy="261" r="3" transform="rotate(180 357 261)" fill="#423B3B" fill-opacity="0.4"/>
<circle cx="339" cy="261" r="3" transform="rotate(180 339 261)" fill="#423B3B" fill-opacity="0.4"/>
<circle cx="321" cy="261" r="3" transform="rotate(180 321 261)" fill="#423B3B" fill-opacity="0.4"/>
<circle cx="303" cy="261" r="3" transform="rotate(180 303 261)" fill="#423B3B" fill-opacity="0.4"/>
<circle cx="285" cy="261" r="3" transform="rotate(180 285 261)" fill="#423B3B" fill-opacity="0.4"/>
<circle cx="267" cy="261" r="3" transform="rotate(180 267 261)" fill="#423B3B" fill-opacity="0.4"/>
<circle cx="249" cy="261" r="3" transform="rotate(180 249 261)" fill="#423B3B" fill-opacity="0.4"/>
<circle cx="231" cy="261" r="3" transform="rotate(180 231 261)" fill="#423B3B" fill-opacity="0.4"/>
<circle cx="213" cy="261" r="3" transform="rotate(180 213 261)" fill="#423B3B" fill-opacity="0.4"/>
<circle cx="195" cy="261" r="3" transform="rotate(180 195 261)" fill="#423B3B" fill-opacity="0.4"/>
<circle cx="537" cy="243" r="3" transform="rotate(180 537 243)" fill="#423B3B" fill-opacity="0.4"/>
<circle cx="519" cy="243" r="3" transform="rotate(180 519 243)" fill="#423B3B" fill-opacity="0.4"/>
<circle cx="501" cy="243" r="3" transform="rotate(180 501 243)" fill="#423B3B" fill-opacity="0.4"/>
<circle cx="483" cy="243" r="3" transform="rotate(180 483 243)" fill="#423B3B" fill-opacity="0.4"/>
<circle cx="465" cy="243" r="3" transform="rotate(180 465 243)" fill="#423B3B" fill-opacity="0.4"/>
<circle cx="447" cy="243" r="3" transform="rotate(180 447 243)" fill="#423B3B" fill-opacity="0.4"/>
<circle cx="429" cy="243" r="3" transform="rotate(180 429 243)" fill="#423B3B" fill-opacity="0.4"/>
<circle cx="411" cy="243" r="3" transform="rotate(180 411 243)" fill="#423B3B" fill-opacity="0.4"/>
<circle cx="393" cy="243" r="3" transform="rotate(180 393 243)" fill="#423B3B" fill-opacity="0.4"/>
<circle cx="375" cy="243" r="3" transform="rotate(180 375 243)" fill="#423B3B" fill-opacity="0.4"/>
<circle cx="357" cy="243" r="3" transform="rotate(180 357 243)" fill="#423B3B" fill-opacity="0.4"/>
<circle cx="339" cy="243" r="3" transform="rotate(180 339 243)" fill="#423B3B" fill-opacity="0.4"/>
<circle cx="321" cy="243" r="3" transform="rotate(180 321 243)" fill="#423B3B" fill-opacity="0.4"/>
<circle cx="303" cy="243" r="3" transform="rotate(180 303 243)" fill="#423B3B" fill-opacity="0.4"/>
<circle cx="285" cy="243" r="3" transform="rotate(180 285 243)" fill="#423B3B" fill-opacity="0.4"/>
<circle cx="267" cy="243" r="3" transform="rotate(180 267 243)" fill="#423B3B" fill-opacity="0.4"/>
<circle cx="249" cy="243" r="3" transform="rotate(180 249 243)" fill="#423B3B" fill-opacity="0.4"/>
<circle cx="231" cy="243" r="3" transform="rotate(180 231 243)" fill="#423B3B" fill-opacity="0.4"/>
<circle cx="213" cy="243" r="3" transform="rotate(180 213 243)" fill="#423B3B" fill-opacity="0.4"/>
<circle cx="195" cy="243" r="3" transform="rotate(180 195 243)" fill="#423B3B" fill-opacity="0.4"/>
<circle cx="537" cy="225" r="3" transform="rotate(180 537 225)" fill="#423B3B" fill-opacity="0.4"/>
<circle cx="519" cy="225" r="3" transform="rotate(180 519 225)" fill="#423B3B" fill-opacity="0.4"/>
<circle cx="501" cy="225" r="3" transform="rotate(180 501 225)" fill="#423B3B" fill-opacity="0.4"/>
<circle cx="483" cy="225" r="3" transform="rotate(180 483 225)" fill="#423B3B" fill-opacity="0.4"/>
<circle cx="465" cy="225" r="3" transform="rotate(180 465 225)" fill="#423B3B" fill-opacity="0.4"/>
<circle cx="447" cy="225" r="3" transform="rotate(180 447 225)" fill="#423B3B" fill-opacity="0.4"/>
<circle cx="429" cy="225" r="3" transform="rotate(180 429 225)" fill="#423B3B" fill-opacity="0.4"/>
<circle cx="411" cy="225" r="3" transform="rotate(180 411 225)" fill="#423B3B" fill-opacity="0.4"/>
<circle cx="393" cy="225" r="3" transform="rotate(180 393 225)" fill="#423B3B" fill-opacity="0.4"/>
<circle cx="375" cy="225" r="3" transform="rotate(180 375 225)" fill="#423B3B" fill-opacity="0.4"/>
<circle cx="357" cy="225" r="3" transform="rotate(180 357 225)" fill="#423B3B" fill-opacity="0.4"/>
<circle cx="339" cy="225" r="3" transform="rotate(180 339 225)" fill="#423B3B" fill-opacity="0.4"/>
<circle cx="321" cy="225" r="3" transform="rotate(180 321 225)" fill="#423B3B" fill-opacity="0.4"/>
<circle cx="303" cy="225" r="3" transform="rotate(180 303 225)" fill="#423B3B" fill-opacity="0.4"/>
<circle cx="285" cy="225" r="3" transform="rotate(180 285 225)" fill="#423B3B" fill-opacity="0.4"/>
<circle cx="267" cy="225" r="3" transform="rotate(180 267 225)" fill="#423B3B" fill-opacity="0.4"/>
<circle cx="249" cy="225" r="3" transform="rotate(180 249 225)" fill="#423B3B" fill-opacity="0.4"/>
<circle cx="231" cy="225" r="3" transform="rotate(180 231 225)" fill="#423B3B" fill-opacity="0.4"/>
<circle cx="213" cy="225" r="3" transform="rotate(180 213 225)" fill="#423B3B" fill-opacity="0.4"/>
<circle cx="195" cy="225" r="3" transform="rotate(180 195 225)" fill="#423B3B" fill-opacity="0.4"/>
<circle cx="537" cy="207" r="3" transform="rotate(180 537 207)" fill="#423B3B" fill-opacity="0.4"/>
<circle cx="519" cy="207" r="3" transform="rotate(180 519 207)" fill="#423B3B" fill-opacity="0.4"/>
<circle cx="501" cy="207" r="3" transform="rotate(180 501 207)" fill="#423B3B" fill-opacity="0.4"/>
<circle cx="483" cy="207" r="3" transform="rotate(180 483 207)" fill="#423B3B" fill-opacity="0.4"/>
<circle cx="465" cy="207" r="3" transform="rotate(180 465 207)" fill="#423B3B" fill-opacity="0.4"/>
<circle cx="447" cy="207" r="3" transform="rotate(180 447 207)" fill="#423B3B" fill-opacity="0.4"/>
<circle cx="429" cy="207" r="3" transform="rotate(180 429 207)" fill="#423B3B" fill-opacity="0.4"/>
<circle cx="411" cy="207" r="3" transform="rotate(180 411 207)" fill="#423B3B" fill-opacity="0.4"/>
<circle cx="393" cy="207" r="3" transform="rotate(180 393 207)" fill="#423B3B" fill-opacity="0.4"/>
<circle cx="375" cy="207" r="3" transform="rotate(180 375 207)" fill="#423B3B" fill-opacity="0.4"/>
<circle cx="357" cy="207" r="3" transform="rotate(180 357 207)" fill="#423B3B" fill-opacity="0.4"/>
<circle cx="339" cy="207" r="3" transform="rotate(180 339 207)" fill="#423B3B" fill-opacity="0.4"/>
<circle cx="321" cy="207" r="3" transform="rotate(180 321 207)" fill="#423B3B" fill-opacity="0.4"/>
<circle cx="303" cy="207" r="3" transform="rotate(180 303 207)" fill="#423B3B" fill-opacity="0.4"/>
<circle cx="285" cy="207" r="3" transform="rotate(180 285 207)" fill="#423B3B" fill-opacity="0.4"/>
<circle cx="267" cy="207" r="3" transform="rotate(180 267 207)" fill="#423B3B" fill-opacity="0.4"/>
<circle cx="249" cy="207" r="3" transform="rotate(180 249 207)" fill="#423B3B" fill-opacity="0.4"/>
<circle cx="231" cy="207" r="3" transform="rotate(180 231 207)" fill="#423B3B" fill-opacity="0.4"/>
<circle cx="213" cy="207" r="3" transform="rotate(180 213 207)" fill="#423B3B" fill-opacity="0.4"/>
<circle cx="195" cy="207" r="3" transform="rotate(180 195 207)" fill="#423B3B" fill-opacity="0.4"/>
<circle cx="537" cy="189" r="3" transform="rotate(180 537 189)" fill="#423B3B" fill-opacity="0.4"/>
<circle cx="519" cy="189" r="3" transform="rotate(180 519 189)" fill="#423B3B" fill-opacity="0.4"/>
<circle cx="501" cy="189" r="3" transform="rotate(180 501 189)" fill="#423B3B" fill-opacity="0.4"/>
<circle cx="483" cy="189" r="3" transform="rotate(180 483 189)" fill="#423B3B" fill-opacity="0.4"/>
<circle cx="465" cy="189" r="3" transform="rotate(180 465 189)" fill="#423B3B" fill-opacity="0.4"/>
<circle cx="447" cy="189" r="3" transform="rotate(180 447 189)" fill="#423B3B" fill-opacity="0.4"/>
<circle cx="429" cy="189" r="3" transform="rotate(180 429 189)" fill="#423B3B" fill-opacity="0.4"/>
<circle cx="411" cy="189" r="3" transform="rotate(180 411 189)" fill="#423B3B" fill-opacity="0.4"/>
<circle cx="393" cy="189" r="3" transform="rotate(180 393 189)" fill="#423B3B" fill-opacity="0.4"/>
<circle cx="375" cy="189" r="3" transform="rotate(180 375 189)" fill="#423B3B" fill-opacity="0.4"/>
<circle cx="357" cy="189" r="3" transform="rotate(180 357 189)" fill="#423B3B" fill-opacity="0.4"/>
<circle cx="339" cy="189" r="3" transform="rotate(180 339 189)" fill="#423B3B" fill-opacity="0.4"/>
<circle cx="321" cy="189" r="3" transform="rotate(180 321 189)" fill="#423B3B" fill-opacity="0.4"/>
<circle cx="303" cy="189" r="3" transform="rotate(180 303 189)" fill="#423B3B" fill-opacity="0.4"/>
<circle cx="285" cy="189" r="3" transform="rotate(180 285 189)" fill="#423B3B" fill-opacity="0.4"/>
<circle cx="267" cy="189" r="3" transform="rotate(180 267 189)" fill="#423B3B" fill-opacity="0.4"/>
<circle cx="249" cy="189" r="3" transform="rotate(180 249 189)" fill="#423B3B" fill-opacity="0.4"/>
<circle cx="231" cy="189" r="3" transform="rotate(180 231 189)" fill="#423B3B" fill-opacity="0.4"/>
<circle cx="213" cy="189" r="3" transform="rotate(180 213 189)" fill="#423B3B" fill-opacity="0.4"/>
<circle cx="195" cy="189" r="3" transform="rotate(180 195 189)" fill="#423B3B" fill-opacity="0.4"/>
<circle cx="537" cy="171" r="3" transform="rotate(180 537 171)" fill="#423B3B" fill-opacity="0.4"/>
<circle cx="519" cy="171" r="3" transform="rotate(180 519 171)" fill="#423B3B" fill-opacity="0.4"/>
<circle cx="501" cy="171" r="3" transform="rotate(180 501 171)" fill="#423B3B" fill-opacity="0.4"/>
<circle cx="483" cy="171" r="3" transform="rotate(180 483 171)" fill="#423B3B" fill-opacity="0.4"/>
<circle cx="465" cy="171" r="3" transform="rotate(180 465 171)" fill="#423B3B" fill-opacity="0.4"/>
<circle cx="447" cy="171" r="3" transform="rotate(180 447 171)" fill="#423B3B" fill-opacity="0.4"/>
<circle cx="429" cy="171" r="3" transform="rotate(180 429 171)" fill="#423B3B" fill-opacity="0.4"/>
<circle cx="411" cy="171" r="3" transform="rotate(180 411 171)" fill="#423B3B" fill-opacity="0.4"/>
<circle cx="393" cy="171" r="3" transform="rotate(180 393 171)" fill="#423B3B" fill-opacity="0.4"/>
<circle cx="375" cy="171" r="3" transform="rotate(180 375 171)" fill="#423B3B" fill-opacity="0.4"/>
<circle cx="357" cy="171" r="3" transform="rotate(180 357 171)" fill="#423B3B" fill-opacity="0.4"/>
<circle cx="339" cy="171" r="3" transform="rotate(180 339 171)" fill="#423B3B" fill-opacity="0.4"/>
<circle cx="321" cy="171" r="3" transform="rotate(180 321 171)" fill="#423B3B" fill-opacity="0.4"/>
<circle cx="303" cy="171" r="3" transform="rotate(180 303 171)" fill="#423B3B" fill-opacity="0.4"/>
<circle cx="285" cy="171" r="3" transform="rotate(180 285 171)" fill="#423B3B" fill-opacity="0.4"/>
<circle cx="267" cy="171" r="3" transform="rotate(180 267 171)" fill="#423B3B" fill-opacity="0.4"/>
<circle cx="249" cy="171" r="3" transform="rotate(180 249 171)" fill="#423B3B" fill-opacity="0.4"/>
<circle cx="231" cy="171" r="3" transform="rotate(180 231 171)" fill="#423B3B" fill-opacity="0.4"/>
<circle cx="213" cy="171" r="3" transform="rotate(180 213 171)" fill="#423B3B" fill-opacity="0.4"/>
<circle cx="195" cy="171" r="3" transform="rotate(180 195 171)" fill="#423B3B" fill-opacity="0.4"/>
<circle cx="537" cy="153" r="3" transform="rotate(180 537 153)" fill="#423B3B" fill-opacity="0.4"/>
<circle cx="519" cy="153" r="3" transform="rotate(180 519 153)" fill="#423B3B" fill-opacity="0.4"/>
<circle cx="501" cy="153" r="3" transform="rotate(180 501 153)" fill="#423B3B" fill-opacity="0.4"/>
<circle cx="483" cy="153" r="3" transform="rotate(180 483 153)" fill="#423B3B" fill-opacity="0.4"/>
<circle cx="465" cy="153" r="3" transform="rotate(180 465 153)" fill="#423B3B" fill-opacity="0.4"/>
<circle cx="447" cy="153" r="3" transform="rotate(180 447 153)" fill="#423B3B" fill-opacity="0.4"/>
<circle cx="429" cy="153" r="3" transform="rotate(180 429 153)" fill="#423B3B" fill-opacity="0.4"/>
<circle cx="411" cy="153" r="3" transform="rotate(180 411 153)" fill="#423B3B" fill-opacity="0.4"/>
<circle cx="393" cy="153" r="3" transform="rotate(180 393 153)" fill="#423B3B" fill-opacity="0.4"/>
<circle cx="375" cy="153" r="3" transform="rotate(180 375 153)" fill="#423B3B" fill-opacity="0.4"/>
<circle cx="357" cy="153" r="3" transform="rotate(180 357 153)" fill="#423B3B" fill-opacity="0.4"/>
<circle cx="339" cy="153" r="3" transform="rotate(180 339 153)" fill="#423B3B" fill-opacity="0.4"/>
<circle cx="321" cy="153" r="3" transform="rotate(180 321 153)" fill="#423B3B" fill-opacity="0.4"/>
<circle cx="303" cy="153" r="3" transform="rotate(180 303 153)" fill="#423B3B" fill-opacity="0.4"/>
<circle cx="285" cy="153" r="3" transform="rotate(180 285 153)" fill="#423B3B" fill-opacity="0.4"/>
<circle cx="267" cy="153" r="3" transform="rotate(180 267 153)" fill="#423B3B" fill-opacity="0.4"/>
<circle cx="249" cy="153" r="3" transform="rotate(180 249 153)" fill="#423B3B" fill-opacity="0.4"/>
<circle cx="231" cy="153" r="3" transform="rotate(180 231 153)" fill="#423B3B" fill-opacity="0.4"/>
<circle cx="213" cy="153" r="3" transform="rotate(180 213 153)" fill="#423B3B" fill-opacity="0.4"/>
<circle cx="195" cy="153" r="3" transform="rotate(180 195 153)" fill="#423B3B" fill-opacity="0.4"/>
<circle cx="537" cy="135" r="3" transform="rotate(180 537 135)" fill="#423B3B" fill-opacity="0.4"/>
<circle cx="519" cy="135" r="3" transform="rotate(180 519 135)" fill="#423B3B" fill-opacity="0.4"/>
<circle cx="501" cy="135" r="3" transform="rotate(180 501 135)" fill="#423B3B" fill-opacity="0.4"/>
<circle cx="483" cy="135" r="3" transform="rotate(180 483 135)" fill="#423B3B" fill-opacity="0.4"/>
<circle cx="465" cy="135" r="3" transform="rotate(180 465 135)" fill="#423B3B" fill-opacity="0.4"/>
<circle cx="447" cy="135" r="3" transform="rotate(180 447 135)" fill="#423B3B" fill-opacity="0.4"/>
<circle cx="429" cy="135" r="3" transform="rotate(180 429 135)" fill="#423B3B" fill-opacity="0.4"/>
<circle cx="411" cy="135" r="3" transform="rotate(180 411 135)" fill="#423B3B" fill-opacity="0.4"/>
<circle cx="393" cy="135" r="3" transform="rotate(180 393 135)" fill="#423B3B" fill-opacity="0.4"/>
<circle cx="375" cy="135" r="3" transform="rotate(180 375 135)" fill="#423B3B" fill-opacity="0.4"/>
<circle cx="357" cy="135" r="3" transform="rotate(180 357 135)" fill="#423B3B" fill-opacity="0.4"/>
<circle cx="339" cy="135" r="3" transform="rotate(180 339 135)" fill="#423B3B" fill-opacity="0.4"/>
<circle cx="321" cy="135" r="3" transform="rotate(180 321 135)" fill="#423B3B" fill-opacity="0.4"/>
<circle cx="303" cy="135" r="3" transform="rotate(180 303 135)" fill="#423B3B" fill-opacity="0.4"/>
<circle cx="285" cy="135" r="3" transform="rotate(180 285 135)" fill="#423B3B" fill-opacity="0.4"/>
<circle cx="267" cy="135" r="3" transform="rotate(180 267 135)" fill="#423B3B" fill-opacity="0.4"/>
<circle cx="249" cy="135" r="3" transform="rotate(180 249 135)" fill="#423B3B" fill-opacity="0.4"/>
<circle cx="231" cy="135" r="3" transform="rotate(180 231 135)" fill="#423B3B" fill-opacity="0.4"/>
<circle cx="213" cy="135" r="3" transform="rotate(180 213 135)" fill="#423B3B" fill-opacity="0.4"/>
<circle cx="195" cy="135" r="3" transform="rotate(180 195 135)" fill="#423B3B" fill-opacity="0.4"/>
<circle cx="537" cy="117" r="3" transform="rotate(180 537 117)" fill="#423B3B" fill-opacity="0.4"/>
<circle cx="519" cy="117" r="3" transform="rotate(180 519 117)" fill="#423B3B" fill-opacity="0.4"/>
<circle cx="501" cy="117" r="3" transform="rotate(180 501 117)" fill="#423B3B" fill-opacity="0.4"/>
<circle cx="483" cy="117" r="3" transform="rotate(180 483 117)" fill="#423B3B" fill-opacity="0.4"/>
<circle cx="465" cy="117" r="3" transform="rotate(180 465 117)" fill="#423B3B" fill-opacity="0.4"/>
<circle cx="447" cy="117" r="3" transform="rotate(180 447 117)" fill="#423B3B" fill-opacity="0.4"/>
<circle cx="429" cy="117" r="3" transform="rotate(180 429 117)" fill="#423B3B" fill-opacity="0.4"/>
<circle cx="411" cy="117" r="3" transform="rotate(180 411 117)" fill="#423B3B" fill-opacity="0.4"/>
<circle cx="393" cy="117" r="3" transform="rotate(180 393 117)" fill="#423B3B" fill-opacity="0.4"/>
<circle cx="375" cy="117" r="3" transform="rotate(180 375 117)" fill="#423B3B" fill-opacity="0.4"/>
<circle cx="357" cy="117" r="3" transform="rotate(180 357 117)" fill="#423B3B" fill-opacity="0.4"/>
<circle cx="339" cy="117" r="3" transform="rotate(180 339 117)" fill="#423B3B" fill-opacity="0.4"/>
<circle cx="321" cy="117" r="3" transform="rotate(180 321 117)" fill="#423B3B" fill-opacity="0.4"/>
<circle cx="303" cy="117" r="3" transform="rotate(180 303 117)" fill="#423B3B" fill-opacity="0.4"/>
<circle cx="285" cy="117" r="3" transform="rotate(180 285 117)" fill="#423B3B" fill-opacity="0.4"/>
<circle cx="267" cy="117" r="3" transform="rotate(180 267 117)" fill="#423B3B" fill-opacity="0.4"/>
<circle cx="249" cy="117" r="3" transform="rotate(180 249 117)" fill="#423B3B" fill-opacity="0.4"/>
<circle cx="231" cy="117" r="3" transform="rotate(180 231 117)" fill="#423B3B" fill-opacity="0.4"/>
<circle cx="213" cy="117" r="3" transform="rotate(180 213 117)" fill="#423B3B" fill-opacity="0.4"/>
<circle cx="195" cy="117" r="3" transform="rotate(180 195 117)" fill="#423B3B" fill-opacity="0.4"/>
<circle cx="537" cy="99" r="3" transform="rotate(180 537 99)" fill="#423B3B" fill-opacity="0.4"/>
<circle cx="519" cy="99" r="3" transform="rotate(180 519 99)" fill="#423B3B" fill-opacity="0.4"/>
<circle cx="501" cy="99" r="3" transform="rotate(180 501 99)" fill="#423B3B" fill-opacity="0.4"/>
<circle cx="483" cy="99" r="3" transform="rotate(180 483 99)" fill="#423B3B" fill-opacity="0.4"/>
<circle cx="465" cy="99" r="3" transform="rotate(180 465 99)" fill="#423B3B" fill-opacity="0.4"/>
<circle cx="447" cy="99" r="3" transform="rotate(180 447 99)" fill="#423B3B" fill-opacity="0.4"/>
<circle cx="429" cy="99" r="3" transform="rotate(180 429 99)" fill="#423B3B" fill-opacity="0.4"/>
<circle cx="411" cy="99" r="3" transform="rotate(180 411 99)" fill="#423B3B" fill-opacity="0.4"/>
<circle cx="393" cy="99" r="3" transform="rotate(180 393 99)" fill="#423B3B" fill-opacity="0.4"/>
<circle cx="375" cy="99" r="3" transform="rotate(180 375 99)" fill="#423B3B" fill-opacity="0.4"/>
<circle cx="357" cy="99" r="3" transform="rotate(180 357 99)" fill="#423B3B" fill-opacity="0.4"/>
<circle cx="339" cy="99" r="3" transform="rotate(180 339 99)" fill="#423B3B" fill-opacity="0.4"/>
<circle cx="321" cy="99" r="3" transform="rotate(180 321 99)" fill="#423B3B" fill-opacity="0.4"/>
<circle cx="303" cy="99" r="3" transform="rotate(180 303 99)" fill="#423B3B" fill-opacity="0.4"/>
<circle cx="285" cy="99" r="3" transform="rotate(180 285 99)" fill="#423B3B" fill-opacity="0.4"/>
<circle cx="267" cy="99" r="3" transform="rotate(180 267 99)" fill="#423B3B" fill-opacity="0.4"/>
<circle cx="249" cy="99" r="3" transform="rotate(180 249 99)" fill="#423B3B" fill-opacity="0.4"/>
<circle cx="231" cy="99" r="3" transform="rotate(180 231 99)" fill="#423B3B" fill-opacity="0.4"/>
<circle cx="213" cy="99" r="3" transform="rotate(180 213 99)" fill="#423B3B" fill-opacity="0.4"/>
<circle cx="195" cy="99" r="3" transform="rotate(180 195 99)" fill="#423B3B" fill-opacity="0.4"/>
<circle cx="537" cy="81" r="3" transform="rotate(180 537 81)" fill="#423B3B" fill-opacity="0.4"/>
<circle cx="519" cy="81" r="3" transform="rotate(180 519 81)" fill="#423B3B" fill-opacity="0.4"/>
<circle cx="501" cy="81" r="3" transform="rotate(180 501 81)" fill="#423B3B" fill-opacity="0.4"/>
<circle cx="483" cy="81" r="3" transform="rotate(180 483 81)" fill="#423B3B" fill-opacity="0.4"/>
<circle cx="465" cy="81" r="3" transform="rotate(180 465 81)" fill="#423B3B" fill-opacity="0.4"/>
<circle cx="447" cy="81" r="3" transform="rotate(180 447 81)" fill="#423B3B" fill-opacity="0.4"/>
<circle cx="429" cy="81" r="3" transform="rotate(180 429 81)" fill="#423B3B" fill-opacity="0.4"/>
<circle cx="411" cy="81" r="3" transform="rotate(180 411 81)" fill="#423B3B" fill-opacity="0.4"/>
<circle cx="393" cy="81" r="3" transform="rotate(180 393 81)" fill="#423B3B" fill-opacity="0.4"/>
<circle cx="375" cy="81" r="3" transform="rotate(180 375 81)" fill="#423B3B" fill-opacity="0.4"/>
<circle cx="357" cy="81" r="3" transform="rotate(180 357 81)" fill="#423B3B" fill-opacity="0.4"/>
<circle cx="339" cy="81" r="3" transform="rotate(180 339 81)" fill="#423B3B" fill-opacity="0.4"/>
<circle cx="321" cy="81" r="3" transform="rotate(180 321 81)" fill="#423B3B" fill-opacity="0.4"/>
<circle cx="303" cy="81" r="3" transform="rotate(180 303 81)" fill="#423B3B" fill-opacity="0.4"/>
<circle cx="285" cy="81" r="3" transform="rotate(180 285 81)" fill="#423B3B" fill-opacity="0.4"/>
<circle cx="267" cy="81" r="3" transform="rotate(180 267 81)" fill="#423B3B" fill-opacity="0.4"/>
<circle cx="249" cy="81" r="3" transform="rotate(180 249 81)" fill="#423B3B" fill-opacity="0.4"/>
<circle cx="231" cy="81" r="3" transform="rotate(180 231 81)" fill="#423B3B" fill-opacity="0.4"/>
<circle cx="213" cy="81" r="3" transform="rotate(180 213 81)" fill="#423B3B" fill-opacity="0.4"/>
<circle cx="195" cy="81" r="3" transform="rotate(180 195 81)" fill="#423B3B" fill-opacity="0.4"/>
</g>
<defs>
<clipPath id="clip0">
<rect width="350" height="407" fill="white" transform="translate(540 480) rotate(180)"/>
</clipPath>
<clipPath id="clip1">
<rect width="350" height="18" fill="white" transform="translate(540 426) rotate(180)"/>
</clipPath>
</defs>
</svg>
