<svg width="32" height="32" viewBox="0 0 32 32" fill="none" xmlns="http://www.w3.org/2000/svg">
<path d="M3.18519 0.22229H28.4444C29.3333 0.22229 30.0864 0.530932 30.7037 1.14822C31.321 1.7655 31.6296 2.4939 31.6296 3.3334V28.6667C31.6296 29.5062 31.321 30.2346 30.7037 30.8519C30.0864 31.4692 29.3333 31.7778 28.4444 31.7778H20.2963C19.9506 31.7285 19.7778 31.2099 19.7778 30.2223V25.926C19.7778 24.5927 19.4074 23.605 18.6667 22.963C20.8395 22.7161 22.5802 22.0494 23.8889 20.963C25.1975 19.8766 25.8519 17.9507 25.8519 15.1853C25.8519 13.5556 25.3086 12.1482 24.2222 10.963C24.7654 9.67908 24.716 8.27167 24.0741 6.74081C23.1852 6.44451 21.7531 6.98772 19.7778 8.37044C18.4938 8.02476 17.1605 7.85192 15.7778 7.85192C14.3951 7.85192 13.0864 8.02476 11.8519 8.37044C10.963 7.77785 10.1605 7.34575 9.44444 7.07414C8.7284 6.80254 8.22222 6.69143 7.92593 6.74081H7.48148C6.88889 8.27167 6.83951 9.67908 7.33333 10.963C6.24691 12.1482 5.7037 13.5556 5.7037 15.1853C5.7037 17.9013 6.37037 19.8149 7.7037 20.926C9.03704 22.0371 10.7654 22.7161 12.8889 22.963C12.3457 23.4569 12.0247 24.1729 11.9259 25.1112C9.85185 26.0001 8.32099 25.5556 7.33333 23.7778C6.74074 22.7902 5.92593 22.247 4.88889 22.1482C4.79012 22.1482 4.67901 22.1606 4.55556 22.1853C4.4321 22.2099 4.2963 22.2964 4.14815 22.4445C4 22.5927 4.19753 22.8149 4.74074 23.1112C5.48148 23.4569 6.07407 24.2223 6.51852 25.4075C6.5679 25.5062 6.61728 25.6174 6.66667 25.7408C6.71605 25.8643 6.87654 26.0988 7.14815 26.4445C7.41975 26.7902 7.74074 27.0494 8.11111 27.2223C8.48148 27.3951 8.98765 27.5556 9.62963 27.7038C10.2716 27.8519 11.0123 27.8025 11.8519 27.5556V30.2223C11.8519 31.2099 11.6543 31.7285 11.2593 31.7778H3.18519C2.2963 31.7778 1.54321 31.4692 0.925926 30.8519C0.308642 30.2346 0 29.5062 0 28.6667V3.3334C0 2.4939 0.308642 1.7655 0.925926 1.14822C1.54321 0.530932 2.2963 0.22229 3.18519 0.22229Z" fill="#F1CE51"/>
</svg>
