<svg width="630" height="315" viewBox="0 0 630 315" fill="none" xmlns="http://www.w3.org/2000/svg">
<path d="M0 283C0 300.673 14.3269 315 32 315H598C615.673 315 630 300.673 630 283V32C630 14.3269 615.673 0 598 0H32C14.3269 0 0 14.3269 0 32V283Z" fill="#0F0E0F"/>
<path d="M193.901 149.83H160.797C159.943 149.83 159.249 150.523 159.249 151.378V167.563C159.249 168.417 159.943 169.113 160.797 169.113H173.711V189.221C173.711 189.221 170.811 190.21 162.794 190.21C153.336 190.21 140.124 186.754 140.124 157.699C140.124 128.64 153.882 124.817 166.798 124.817C177.978 124.817 182.795 126.785 185.86 127.734C186.824 128.028 187.714 127.069 187.714 126.215L191.407 110.576C191.407 110.176 191.272 109.696 190.817 109.369C189.572 108.48 181.978 104.231 162.794 104.231C140.695 104.231 118.025 113.633 118.025 158.833C118.025 204.034 143.979 210.769 165.851 210.769C183.96 210.769 194.946 203.031 194.946 203.031C195.399 202.78 195.448 202.147 195.448 201.857V151.378C195.448 150.523 194.755 149.83 193.901 149.83Z" fill="white"/>
<path d="M364.508 109.647C364.508 108.785 363.826 108.091 362.971 108.091H344.332C343.48 108.091 342.788 108.785 342.788 109.647C342.788 109.651 342.793 145.669 342.793 145.669H313.738V109.647C313.738 108.785 313.053 108.091 312.199 108.091H293.561C292.713 108.091 292.022 108.785 292.022 109.647V207.185C292.022 208.045 292.713 208.745 293.561 208.745H312.199C313.053 208.745 313.738 208.045 313.738 207.185V165.464H342.793C342.793 165.464 342.742 207.181 342.742 207.185C342.742 208.045 343.433 208.745 344.287 208.745H362.97C363.823 208.745 364.506 208.045 364.508 207.185V109.647Z" fill="white"/>
<path d="M229.075 122.446C229.075 115.734 223.694 110.31 217.055 110.31C210.423 110.31 205.038 115.734 205.038 122.446C205.038 129.151 210.423 134.591 217.055 134.591C223.694 134.591 229.075 129.151 229.075 122.446Z" fill="white"/>
<path d="M227.742 186.609V141.586C227.742 140.731 227.053 140.032 226.2 140.032H207.62C206.766 140.032 206.004 140.911 206.004 141.766V206.272C206.004 208.167 207.185 208.732 208.714 208.732H225.455C227.292 208.732 227.742 207.828 227.742 206.241V186.609Z" fill="white"/>
<path d="M435.348 140.178H416.851C416.003 140.178 415.313 140.878 415.313 141.739V189.563C415.313 189.563 410.613 193.002 403.943 193.002C397.273 193.002 395.504 189.976 395.504 183.446V141.739C395.504 140.878 394.815 140.178 393.966 140.178H375.193C374.346 140.178 373.652 140.878 373.652 141.739V186.603C373.652 206.001 384.462 210.747 399.334 210.747C411.536 210.747 421.373 204.005 421.373 204.005C421.373 204.005 421.84 207.558 422.053 207.979C422.264 208.399 422.817 208.824 423.414 208.824L435.357 208.771C436.203 208.771 436.898 208.071 436.898 207.213L436.891 141.739C436.891 140.878 436.2 140.178 435.348 140.178Z" fill="white"/>
<path d="M478.607 192.943C472.191 192.748 467.839 189.836 467.839 189.836V158.949C467.839 158.949 472.132 156.317 477.4 155.847C484.061 155.249 490.479 157.262 490.479 173.151C490.479 189.907 487.583 193.214 478.607 192.943ZM485.903 137.988C475.397 137.988 468.252 142.675 468.252 142.675V109.648C468.252 108.786 467.563 108.091 466.714 108.091H448.021C447.171 108.091 446.481 108.786 446.481 109.648V207.185C446.481 208.046 447.171 208.745 448.023 208.745H460.993C461.577 208.745 462.019 208.444 462.346 207.917C462.668 207.393 463.133 203.419 463.133 203.419C463.133 203.419 470.776 210.663 485.245 210.663C502.234 210.663 511.976 202.047 511.976 171.982C511.976 141.917 496.416 137.988 485.903 137.988" fill="white"/>
<path d="M281.314 140.024H267.332C267.332 140.024 267.311 121.556 267.311 121.551C267.311 120.852 266.951 120.502 266.142 120.502H247.089C246.348 120.502 245.95 120.828 245.95 121.541V140.63C245.95 140.63 236.402 142.934 235.756 143.12C235.113 143.307 234.64 143.9 234.64 144.606V156.602C234.64 157.465 235.329 158.161 236.181 158.161H245.95V187.019C245.95 208.452 260.985 210.557 271.129 210.557C275.766 210.557 281.311 209.069 282.227 208.731C282.78 208.527 283.103 207.953 283.103 207.332L283.118 194.137C283.118 193.276 282.391 192.579 281.572 192.579C280.758 192.579 278.673 192.911 276.527 192.911C269.659 192.911 267.332 189.718 267.332 185.584C267.332 181.454 267.331 158.161 267.331 158.161H281.314C282.166 158.161 282.858 157.465 282.858 156.602V141.578C282.858 140.717 282.166 140.024 281.314 140.024Z" fill="white"/>
</svg>
