<svg width="500" height="500" viewBox="0 0 500 500" fill="none" xmlns="http://www.w3.org/2000/svg">
<rect width="500" height="500" fill="white"/>
<path fill-rule="evenodd" clip-rule="evenodd" d="M250 54.8778C139.558 54.8778 50 144.415 50 254.878C50 343.24 107.306 418.208 186.772 444.654C196.768 446.505 200.437 440.315 200.437 435.033C200.437 430.267 200.252 414.509 200.166 397.797C144.525 409.895 132.785 374.2 132.785 374.2C123.687 351.086 110.578 344.935 110.578 344.935C92.4323 332.522 111.946 332.777 111.946 332.777C132.03 334.188 142.605 353.391 142.605 353.391C160.442 383.963 189.392 375.124 200.805 370.013C202.603 357.09 207.783 348.264 213.503 343.27C169.08 338.216 122.382 321.063 122.382 244.429C122.382 222.597 130.195 204.752 142.989 190.746C140.912 185.708 134.066 165.367 144.929 137.818C144.929 137.818 161.724 132.446 199.94 158.322C215.894 153.891 233.003 151.669 250 151.589C266.997 151.669 284.119 153.891 300.103 158.322C338.276 132.446 355.047 137.818 355.047 137.818C365.934 165.367 359.088 185.708 357.011 190.746C369.835 204.752 377.592 222.597 377.592 244.429C377.592 321.249 330.804 338.159 286.269 343.111C293.442 349.317 299.834 361.488 299.834 380.148C299.834 406.908 299.606 428.445 299.606 435.033C299.606 440.358 303.203 446.591 313.34 444.631C392.767 418.155 450 343.213 450 254.878C450 144.415 360.456 54.8778 250 54.8778Z" fill="#1B1817"/>
</svg>
