<svg width="1009" height="316" viewBox="0 0 1009 316" fill="none" xmlns="http://www.w3.org/2000/svg">
<path d="M977.469 315.312H31.5312C14.1891 315.312 0 301.123 0 283.781V31.5312C0 14.1891 14.1891 0 31.5312 0H977.469C994.811 0 1009 14.1891 1009 31.5312V283.781C1009 301.123 994.811 315.312 977.469 315.312Z" fill="black"/>
<path fill-rule="evenodd" clip-rule="evenodd" d="M77.2515 154.503V71.7336C77.2515 67.0039 81.1929 63.0625 85.1343 63.0625C89.0757 63.0625 90.6522 63.8508 93.0171 65.4273L245.155 148.985C248.309 150.562 249.885 152.927 249.885 155.291C249.885 157.656 248.309 160.021 245.155 161.598L93.0171 245.155C91.4405 245.944 89.0757 247.52 85.1343 247.52C81.1929 247.52 77.2515 243.579 77.2515 238.849V154.503Z" fill="url(#paint0_linear)"/>
<path fill-rule="evenodd" clip-rule="evenodd" d="M175.787 155.291L83.5579 63.0625C84.3461 63.0625 84.3461 63.0625 85.1344 63.0625C89.0758 63.0625 90.6524 63.8508 93.0172 65.4273L204.953 126.913L175.787 155.291Z" fill="url(#paint1_linear)"/>
<path fill-rule="evenodd" clip-rule="evenodd" d="M204.165 182.881L175.787 154.503L204.953 125.337L245.155 147.409C248.309 148.985 249.885 151.35 249.885 153.715C249.885 156.08 248.309 158.445 245.155 160.021L204.165 182.881Z" fill="url(#paint2_linear)"/>
<path fill-rule="evenodd" clip-rule="evenodd" d="M84.3462 245.944L175.787 154.503L204.165 182.881L93.0173 243.579C90.6525 245.155 89.0759 245.944 84.3462 245.944C85.1345 245.944 85.1345 245.944 84.3462 245.944Z" fill="url(#paint3_linear)"/>
<path fill-rule="evenodd" clip-rule="evenodd" d="M560.468 267.227C556.527 264.074 553.373 258.556 551.797 255.403L564.409 249.885C565.198 251.462 566.774 253.827 568.351 256.191C571.504 259.345 576.234 262.498 580.963 262.498C585.693 262.498 591.211 260.133 594.364 256.191C596.729 252.25 598.305 248.309 598.305 242.791V238.061C588.846 249.885 569.139 248.309 558.103 235.696C546.279 223.084 546.279 201.8 558.103 189.188C569.927 177.363 587.269 175.787 597.517 186.823V181.305H610.918V240.426C610.918 255.403 605.4 264.074 598.305 269.592C593.576 273.534 586.481 275.11 580.175 275.11C573.081 274.322 565.986 271.957 560.468 267.227ZM890.758 270.38L904.159 238.849L880.51 184.458H893.911L910.465 223.084L927.019 184.458H940.419L904.159 270.38H890.758ZM826.907 240.426C822.966 236.484 821.389 230.966 821.389 225.448C821.389 220.719 822.966 215.989 826.119 212.836C831.637 207.318 839.52 204.953 848.191 204.953C853.709 204.953 858.438 205.741 862.38 208.106C862.38 198.647 854.497 194.705 848.191 194.705C842.673 194.705 837.155 197.859 834.79 203.377L822.966 198.647C825.33 193.129 831.637 182.881 847.402 182.881C855.285 182.881 863.168 185.246 867.898 190.764C872.627 196.282 874.204 202.588 874.204 211.259V244.367H860.803V238.849C859.227 241.214 856.073 242.791 853.708 244.367C850.555 245.944 846.614 246.732 842.673 246.732C837.943 245.944 830.848 244.367 826.907 240.426ZM406.753 212.048C406.753 196.282 418.577 178.94 439.861 178.94C460.356 178.94 472.969 196.282 472.969 212.048C472.969 227.813 461.145 245.155 439.861 245.155C418.577 245.155 406.753 227.813 406.753 212.048ZM477.698 212.048C477.698 196.282 489.523 178.94 510.806 178.94C531.302 178.94 543.914 196.282 543.914 212.048C543.914 227.813 532.09 245.155 510.806 245.155C490.311 245.155 477.698 227.813 477.698 212.048ZM317.677 229.39C297.97 209.683 298.759 177.363 318.466 156.868C328.713 146.62 341.326 141.891 354.727 141.891C367.339 141.891 379.952 146.62 389.411 156.08L379.952 166.327C365.762 152.138 342.902 152.927 329.502 167.116C315.313 182.093 315.313 204.953 329.502 219.93C343.691 234.908 367.339 235.696 381.528 220.719C386.258 215.989 387.834 209.683 388.623 203.377H355.515V189.188H402.023C402.812 192.341 402.812 196.282 402.812 200.223C402.812 212.048 398.082 223.872 390.199 231.755C381.528 240.426 368.916 245.155 356.303 245.155C342.114 244.367 327.925 239.637 317.677 229.39ZM651.12 234.908C639.296 222.295 639.296 201.012 651.12 187.611C662.945 174.998 682.652 174.998 693.688 187.611C697.629 191.552 699.994 197.07 702.359 202.588L659.003 220.719C661.368 226.237 666.886 230.966 674.769 230.966C681.863 230.966 686.593 228.602 691.323 221.507L703.147 229.39C701.57 230.966 699.994 232.543 699.206 234.12C685.805 247.52 662.945 247.52 651.12 234.908ZM733.102 244.367V156.868H761.48C778.034 156.868 791.434 168.692 791.434 182.881C791.434 197.07 779.61 208.895 764.633 208.895H747.291V243.579H733.102V244.367ZM799.317 244.367V156.868H812.718V244.367H799.317ZM621.166 242.791V145.044H635.355V242.791H621.166ZM861.591 218.354C858.438 215.989 853.709 215.201 848.979 215.201C839.52 215.201 834.001 219.93 834.001 225.448C834.001 230.966 839.52 234.12 845.038 234.12C852.92 234.12 861.591 227.813 861.591 218.354ZM457.991 212.048C457.991 202.588 451.685 192.341 439.861 192.341C428.037 192.341 421.73 202.588 421.73 212.048C421.73 221.507 428.037 231.755 439.861 231.755C450.897 231.755 457.991 221.507 457.991 212.048ZM528.937 212.048C528.937 202.588 522.63 192.341 510.806 192.341C498.982 192.341 492.676 202.588 492.676 212.048C492.676 221.507 498.982 231.755 510.806 231.755C522.63 231.755 528.937 221.507 528.937 212.048ZM599.094 217.566C599.094 216.777 599.094 215.989 599.882 215.201C599.882 214.412 599.882 212.836 599.882 212.048C599.882 211.259 599.882 209.683 599.882 208.895V208.106C599.882 207.318 599.094 205.741 599.094 204.953C596.729 197.07 589.634 191.552 582.54 191.552C573.08 191.552 565.198 201.012 565.198 211.259C565.198 222.295 573.08 230.966 583.328 230.966C589.634 231.755 595.941 226.237 599.094 217.566ZM656.638 210.471L685.805 197.859C682.652 192.341 677.922 190.764 673.98 190.764C662.156 191.552 655.062 204.165 656.638 210.471ZM777.245 183.67C777.245 175.787 770.939 170.269 762.268 170.269H746.502V197.859H763.056C770.939 197.859 777.245 191.552 777.245 183.67Z" fill="white"/>
<path fill-rule="evenodd" clip-rule="evenodd" d="M901.005 254.615H900.217V253.827H901.005H900.217V254.615H901.005Z" fill="white"/>
<path fill-rule="evenodd" clip-rule="evenodd" d="M902.582 254.615C902.582 253.827 902.582 253.827 902.582 254.615C901.794 253.827 901.794 253.827 902.582 254.615C901.794 254.615 901.794 254.615 902.582 254.615ZM902.582 253.827C902.582 254.615 902.582 254.615 902.582 253.827C902.582 254.615 901.794 254.615 902.582 253.827C901.794 253.827 902.582 253.827 902.582 253.827Z" fill="white"/>
<path fill-rule="evenodd" clip-rule="evenodd" d="M903.37 253.827H902.582H903.37V254.615V253.827Z" fill="white"/>
<path d="M306.641 79.6165C306.641 65.4274 316.889 56.7563 329.502 56.7563C338.173 56.7563 343.691 60.6977 347.632 66.2157L341.326 70.1571C338.961 67.004 335.02 64.6392 329.502 64.6392C320.83 64.6392 314.524 70.9454 314.524 80.4048C314.524 89.8642 320.83 96.1704 329.502 96.1704C334.231 96.1704 338.173 93.8056 339.749 92.229V85.1345H327.137V78.0399H348.42V94.5938C344.479 99.3235 338.173 102.477 330.29 102.477C316.889 102.477 306.641 93.0173 306.641 79.6165Z" fill="white"/>
<path d="M357.88 101.688V57.5444H387.834V64.639H364.974V75.6749H387.046V82.7694H364.974V95.3819H387.834V102.476L357.88 101.688Z" fill="white"/>
<path d="M409.906 101.688V64.639H396.505V57.5444H431.19V64.639H417.789V101.688H409.906Z" fill="white"/>
<path d="M457.991 101.688V57.5444H465.874V101.688H457.991Z" fill="white"/>
<path d="M487.158 101.688V64.639H473.757V57.5444H508.441V64.639H495.041V101.688H487.158Z" fill="white"/>
<path d="M533.667 79.6165C533.667 66.2157 543.126 56.7563 556.527 56.7563C569.928 56.7563 579.387 66.2157 579.387 79.6165C579.387 93.0173 569.928 102.477 556.527 102.477C543.126 102.477 533.667 92.229 533.667 79.6165ZM570.716 79.6165C570.716 70.1571 565.198 63.8509 555.738 63.8509C547.067 63.8509 540.761 70.9454 540.761 79.6165C540.761 89.0759 546.279 95.3821 555.738 95.3821C565.198 95.3821 570.716 88.2876 570.716 79.6165Z" fill="white"/>
<path d="M618.801 101.688L595.941 70.1569V101.688H588.058V57.5444H595.941L618.801 88.2874V57.5444H626.684V101.688H618.801Z" fill="white"/>
<defs>
<linearGradient id="paint0_linear" x1="128.233" y1="51.8185" x2="172.362" y2="233.051" gradientUnits="userSpaceOnUse">
<stop stop-color="#006884"/>
<stop offset="1" stop-color="#8AD1D0"/>
</linearGradient>
<linearGradient id="paint1_linear" x1="74.4193" y1="77.5968" x2="194.679" y2="142.61" gradientUnits="userSpaceOnUse">
<stop stop-color="#24BBB6"/>
<stop offset="1" stop-color="#DBE692"/>
</linearGradient>
<linearGradient id="paint2_linear" x1="212.792" y1="186.193" x2="212.792" y2="123.537" gradientUnits="userSpaceOnUse">
<stop stop-color="#FCC072"/>
<stop offset="1" stop-color="#F58A5B"/>
</linearGradient>
<linearGradient id="paint3_linear" x1="97.7052" y1="262.254" x2="192.707" y2="165.57" gradientUnits="userSpaceOnUse">
<stop stop-color="#712B8F"/>
<stop offset="1" stop-color="#EA1D27"/>
</linearGradient>
</defs>
</svg>
