<svg width="1916" height="690" viewBox="0 0 1916 690" fill="none" xmlns="http://www.w3.org/2000/svg">
<g clip-path="url(#clip0)">
<circle cx="2" cy="392" r="2" fill="#F1CE51" fill-opacity="0.3"/>
<circle cx="21" cy="392" r="2" fill="#F1CE51" fill-opacity="0.3"/>
<circle cx="40" cy="392" r="2" fill="#F1CE51" fill-opacity="0.3"/>
<circle cx="59" cy="392" r="2" fill="#F1CE51" fill-opacity="0.3"/>
<circle cx="78" cy="392" r="2" fill="#F1CE51" fill-opacity="0.3"/>
<circle cx="97" cy="392" r="2" fill="#F1CE51" fill-opacity="0.3"/>
<circle cx="116" cy="392" r="2" fill="#F1CE51" fill-opacity="0.3"/>
<circle cx="135" cy="392" r="2" fill="#F1CE51" fill-opacity="0.3"/>
<circle cx="154" cy="392" r="2" fill="#F1CE51" fill-opacity="0.3"/>
<circle cx="173" cy="392" r="2" fill="#F1CE51" fill-opacity="0.3"/>
<circle cx="192" cy="392" r="2" fill="#F1CE51" fill-opacity="0.3"/>
<circle cx="211" cy="392" r="2" fill="#F1CE51" fill-opacity="0.3"/>
<circle cx="230" cy="392" r="2" fill="#F1CE51" fill-opacity="0.3"/>
<circle cx="249" cy="392" r="2" fill="#F1CE51" fill-opacity="0.3"/>
<circle cx="268" cy="392" r="2" fill="#F1CE51" fill-opacity="0.3"/>
<circle cx="2" cy="411" r="2" fill="#F1CE51" fill-opacity="0.3"/>
<circle cx="21" cy="411" r="2" fill="#F1CE51" fill-opacity="0.3"/>
<circle cx="40" cy="411" r="2" fill="#F1CE51" fill-opacity="0.3"/>
<circle cx="59" cy="411" r="2" fill="#F1CE51" fill-opacity="0.3"/>
<circle cx="78" cy="411" r="2" fill="#F1CE51" fill-opacity="0.3"/>
<circle cx="97" cy="411" r="2" fill="#F1CE51" fill-opacity="0.3"/>
<circle cx="116" cy="411" r="2" fill="#F1CE51" fill-opacity="0.3"/>
<circle cx="135" cy="411" r="2" fill="#F1CE51" fill-opacity="0.3"/>
<circle cx="154" cy="411" r="2" fill="#F1CE51" fill-opacity="0.3"/>
<circle cx="173" cy="411" r="2" fill="#F1CE51" fill-opacity="0.3"/>
<circle cx="192" cy="411" r="2" fill="#F1CE51" fill-opacity="0.3"/>
<circle cx="211" cy="411" r="2" fill="#F1CE51" fill-opacity="0.3"/>
<circle cx="230" cy="411" r="2" fill="#F1CE51" fill-opacity="0.3"/>
<circle cx="249" cy="411" r="2" fill="#F1CE51" fill-opacity="0.3"/>
<circle cx="268" cy="411" r="2" fill="#F1CE51" fill-opacity="0.3"/>
<circle cx="2" cy="430" r="2" fill="#F1CE51" fill-opacity="0.3"/>
<circle cx="21" cy="430" r="2" fill="#F1CE51" fill-opacity="0.3"/>
<circle cx="40" cy="430" r="2" fill="#F1CE51" fill-opacity="0.3"/>
<circle cx="59" cy="430" r="2" fill="#F1CE51" fill-opacity="0.3"/>
<circle cx="78" cy="430" r="2" fill="#F1CE51" fill-opacity="0.3"/>
<circle cx="97" cy="430" r="2" fill="#F1CE51" fill-opacity="0.3"/>
<circle cx="116" cy="430" r="2" fill="#F1CE51" fill-opacity="0.3"/>
<circle cx="135" cy="430" r="2" fill="#F1CE51" fill-opacity="0.3"/>
<circle cx="154" cy="430" r="2" fill="#F1CE51" fill-opacity="0.3"/>
<circle cx="173" cy="430" r="2" fill="#F1CE51" fill-opacity="0.3"/>
<circle cx="192" cy="430" r="2" fill="#F1CE51" fill-opacity="0.3"/>
<circle cx="211" cy="430" r="2" fill="#F1CE51" fill-opacity="0.3"/>
<circle cx="230" cy="430" r="2" fill="#F1CE51" fill-opacity="0.3"/>
<circle cx="249" cy="430" r="2" fill="#F1CE51" fill-opacity="0.3"/>
<circle cx="268" cy="430" r="2" fill="#F1CE51" fill-opacity="0.3"/>
<circle cx="2" cy="449" r="2" fill="#F1CE51" fill-opacity="0.3"/>
<circle cx="21" cy="449" r="2" fill="#F1CE51" fill-opacity="0.3"/>
<circle cx="40" cy="449" r="2" fill="#F1CE51" fill-opacity="0.3"/>
<circle cx="59" cy="449" r="2" fill="#F1CE51" fill-opacity="0.3"/>
<circle cx="78" cy="449" r="2" fill="#F1CE51" fill-opacity="0.3"/>
<circle cx="97" cy="449" r="2" fill="#F1CE51" fill-opacity="0.3"/>
<circle cx="116" cy="449" r="2" fill="#F1CE51" fill-opacity="0.3"/>
<circle cx="135" cy="449" r="2" fill="#F1CE51" fill-opacity="0.3"/>
<circle cx="154" cy="449" r="2" fill="#F1CE51" fill-opacity="0.3"/>
<circle cx="173" cy="449" r="2" fill="#F1CE51" fill-opacity="0.3"/>
<circle cx="192" cy="449" r="2" fill="#F1CE51" fill-opacity="0.3"/>
<circle cx="211" cy="449" r="2" fill="#F1CE51" fill-opacity="0.3"/>
<circle cx="230" cy="449" r="2" fill="#F1CE51" fill-opacity="0.3"/>
<circle cx="249" cy="449" r="2" fill="#F1CE51" fill-opacity="0.3"/>
<circle cx="268" cy="449" r="2" fill="#F1CE51" fill-opacity="0.3"/>
<circle cx="2" cy="468" r="2" fill="#F1CE51" fill-opacity="0.3"/>
<circle cx="21" cy="468" r="2" fill="#F1CE51" fill-opacity="0.3"/>
<circle cx="40" cy="468" r="2" fill="#F1CE51" fill-opacity="0.3"/>
<circle cx="59" cy="468" r="2" fill="#F1CE51" fill-opacity="0.3"/>
<circle cx="78" cy="468" r="2" fill="#F1CE51" fill-opacity="0.3"/>
<circle cx="97" cy="468" r="2" fill="#F1CE51" fill-opacity="0.3"/>
<circle cx="116" cy="468" r="2" fill="#F1CE51" fill-opacity="0.3"/>
<circle cx="135" cy="468" r="2" fill="#F1CE51" fill-opacity="0.3"/>
<circle cx="154" cy="468" r="2" fill="#F1CE51" fill-opacity="0.3"/>
<circle cx="173" cy="468" r="2" fill="#F1CE51" fill-opacity="0.3"/>
<circle cx="192" cy="468" r="2" fill="#F1CE51" fill-opacity="0.3"/>
<circle cx="211" cy="468" r="2" fill="#F1CE51" fill-opacity="0.3"/>
<circle cx="230" cy="468" r="2" fill="#F1CE51" fill-opacity="0.3"/>
<circle cx="249" cy="468" r="2" fill="#F1CE51" fill-opacity="0.3"/>
<circle cx="268" cy="468" r="2" fill="#F1CE51" fill-opacity="0.3"/>
<circle cx="2" cy="487" r="2" fill="#F1CE51" fill-opacity="0.3"/>
<circle cx="21" cy="487" r="2" fill="#F1CE51" fill-opacity="0.3"/>
<circle cx="40" cy="487" r="2" fill="#F1CE51" fill-opacity="0.3"/>
<circle cx="59" cy="487" r="2" fill="#F1CE51" fill-opacity="0.3"/>
<circle cx="78" cy="487" r="2" fill="#F1CE51" fill-opacity="0.3"/>
<circle cx="97" cy="487" r="2" fill="#F1CE51" fill-opacity="0.3"/>
<circle cx="116" cy="487" r="2" fill="#F1CE51" fill-opacity="0.3"/>
<circle cx="135" cy="487" r="2" fill="#F1CE51" fill-opacity="0.3"/>
<circle cx="154" cy="487" r="2" fill="#F1CE51" fill-opacity="0.3"/>
<circle cx="173" cy="487" r="2" fill="#F1CE51" fill-opacity="0.3"/>
<circle cx="192" cy="487" r="2" fill="#F1CE51" fill-opacity="0.3"/>
<circle cx="211" cy="487" r="2" fill="#F1CE51" fill-opacity="0.3"/>
<circle cx="230" cy="487" r="2" fill="#F1CE51" fill-opacity="0.3"/>
<circle cx="249" cy="487" r="2" fill="#F1CE51" fill-opacity="0.3"/>
<circle cx="268" cy="487" r="2" fill="#F1CE51" fill-opacity="0.3"/>
<circle cx="2" cy="506" r="2" fill="#F1CE51" fill-opacity="0.3"/>
<circle cx="21" cy="506" r="2" fill="#F1CE51" fill-opacity="0.3"/>
<circle cx="40" cy="506" r="2" fill="#F1CE51" fill-opacity="0.3"/>
<circle cx="59" cy="506" r="2" fill="#F1CE51" fill-opacity="0.3"/>
<circle cx="78" cy="506" r="2" fill="#F1CE51" fill-opacity="0.3"/>
<circle cx="97" cy="506" r="2" fill="#F1CE51" fill-opacity="0.3"/>
<circle cx="116" cy="506" r="2" fill="#F1CE51" fill-opacity="0.3"/>
<circle cx="135" cy="506" r="2" fill="#F1CE51" fill-opacity="0.3"/>
<circle cx="154" cy="506" r="2" fill="#F1CE51" fill-opacity="0.3"/>
<circle cx="173" cy="506" r="2" fill="#F1CE51" fill-opacity="0.3"/>
<circle cx="192" cy="506" r="2" fill="#F1CE51" fill-opacity="0.3"/>
<circle cx="211" cy="506" r="2" fill="#F1CE51" fill-opacity="0.3"/>
<circle cx="230" cy="506" r="2" fill="#F1CE51" fill-opacity="0.3"/>
<circle cx="249" cy="506" r="2" fill="#F1CE51" fill-opacity="0.3"/>
<circle cx="268" cy="506" r="2" fill="#F1CE51" fill-opacity="0.3"/>
<circle cx="2" cy="525" r="2" fill="#F1CE51" fill-opacity="0.3"/>
<circle cx="21" cy="525" r="2" fill="#F1CE51" fill-opacity="0.3"/>
<circle cx="40" cy="525" r="2" fill="#F1CE51" fill-opacity="0.3"/>
<circle cx="59" cy="525" r="2" fill="#F1CE51" fill-opacity="0.3"/>
<circle cx="78" cy="525" r="2" fill="#F1CE51" fill-opacity="0.3"/>
<circle cx="97" cy="525" r="2" fill="#F1CE51" fill-opacity="0.3"/>
<circle cx="116" cy="525" r="2" fill="#F1CE51" fill-opacity="0.3"/>
<circle cx="135" cy="525" r="2" fill="#F1CE51" fill-opacity="0.3"/>
<circle cx="154" cy="525" r="2" fill="#F1CE51" fill-opacity="0.3"/>
<circle cx="173" cy="525" r="2" fill="#F1CE51" fill-opacity="0.3"/>
<circle cx="192" cy="525" r="2" fill="#F1CE51" fill-opacity="0.3"/>
<circle cx="211" cy="525" r="2" fill="#F1CE51" fill-opacity="0.3"/>
<circle cx="230" cy="525" r="2" fill="#F1CE51" fill-opacity="0.3"/>
<circle cx="249" cy="525" r="2" fill="#F1CE51" fill-opacity="0.3"/>
<circle cx="268" cy="525" r="2" fill="#F1CE51" fill-opacity="0.3"/>
<circle cx="2" cy="544" r="2" fill="#F1CE51" fill-opacity="0.3"/>
<circle cx="21" cy="544" r="2" fill="#F1CE51" fill-opacity="0.3"/>
<circle cx="40" cy="544" r="2" fill="#F1CE51" fill-opacity="0.3"/>
<circle cx="59" cy="544" r="2" fill="#F1CE51" fill-opacity="0.3"/>
<circle cx="78" cy="544" r="2" fill="#F1CE51" fill-opacity="0.3"/>
<circle cx="97" cy="544" r="2" fill="#F1CE51" fill-opacity="0.3"/>
<circle cx="116" cy="544" r="2" fill="#F1CE51" fill-opacity="0.3"/>
<circle cx="135" cy="544" r="2" fill="#F1CE51" fill-opacity="0.3"/>
<circle cx="154" cy="544" r="2" fill="#F1CE51" fill-opacity="0.3"/>
<circle cx="173" cy="544" r="2" fill="#F1CE51" fill-opacity="0.3"/>
<circle cx="192" cy="544" r="2" fill="#F1CE51" fill-opacity="0.3"/>
<circle cx="211" cy="544" r="2" fill="#F1CE51" fill-opacity="0.3"/>
<circle cx="230" cy="544" r="2" fill="#F1CE51" fill-opacity="0.3"/>
<circle cx="249" cy="544" r="2" fill="#F1CE51" fill-opacity="0.3"/>
<circle cx="268" cy="544" r="2" fill="#F1CE51" fill-opacity="0.3"/>
<circle cx="2" cy="563" r="2" fill="#F1CE51" fill-opacity="0.3"/>
<circle cx="21" cy="563" r="2" fill="#F1CE51" fill-opacity="0.3"/>
<circle cx="40" cy="563" r="2" fill="#F1CE51" fill-opacity="0.3"/>
<circle cx="59" cy="563" r="2" fill="#F1CE51" fill-opacity="0.3"/>
<circle cx="78" cy="563" r="2" fill="#F1CE51" fill-opacity="0.3"/>
<circle cx="97" cy="563" r="2" fill="#F1CE51" fill-opacity="0.3"/>
<circle cx="116" cy="563" r="2" fill="#F1CE51" fill-opacity="0.3"/>
<circle cx="135" cy="563" r="2" fill="#F1CE51" fill-opacity="0.3"/>
<circle cx="154" cy="563" r="2" fill="#F1CE51" fill-opacity="0.3"/>
<circle cx="173" cy="563" r="2" fill="#F1CE51" fill-opacity="0.3"/>
<circle cx="192" cy="563" r="2" fill="#F1CE51" fill-opacity="0.3"/>
<circle cx="211" cy="563" r="2" fill="#F1CE51" fill-opacity="0.3"/>
<circle cx="230" cy="563" r="2" fill="#F1CE51" fill-opacity="0.3"/>
<circle cx="249" cy="563" r="2" fill="#F1CE51" fill-opacity="0.3"/>
<circle cx="268" cy="563" r="2" fill="#F1CE51" fill-opacity="0.3"/>
<circle cx="2" cy="582" r="2" fill="#F1CE51" fill-opacity="0.3"/>
<circle cx="21" cy="582" r="2" fill="#F1CE51" fill-opacity="0.3"/>
<circle cx="40" cy="582" r="2" fill="#F1CE51" fill-opacity="0.3"/>
<circle cx="59" cy="582" r="2" fill="#F1CE51" fill-opacity="0.3"/>
<circle cx="78" cy="582" r="2" fill="#F1CE51" fill-opacity="0.3"/>
<circle cx="97" cy="582" r="2" fill="#F1CE51" fill-opacity="0.3"/>
<circle cx="116" cy="582" r="2" fill="#F1CE51" fill-opacity="0.3"/>
<circle cx="135" cy="582" r="2" fill="#F1CE51" fill-opacity="0.3"/>
<circle cx="154" cy="582" r="2" fill="#F1CE51" fill-opacity="0.3"/>
<circle cx="173" cy="582" r="2" fill="#F1CE51" fill-opacity="0.3"/>
<circle cx="192" cy="582" r="2" fill="#F1CE51" fill-opacity="0.3"/>
<circle cx="211" cy="582" r="2" fill="#F1CE51" fill-opacity="0.3"/>
<circle cx="230" cy="582" r="2" fill="#F1CE51" fill-opacity="0.3"/>
<circle cx="249" cy="582" r="2" fill="#F1CE51" fill-opacity="0.3"/>
<circle cx="268" cy="582" r="2" fill="#F1CE51" fill-opacity="0.3"/>
<circle cx="2" cy="601" r="2" fill="#F1CE51" fill-opacity="0.3"/>
<circle cx="21" cy="601" r="2" fill="#F1CE51" fill-opacity="0.3"/>
<circle cx="40" cy="601" r="2" fill="#F1CE51" fill-opacity="0.3"/>
<circle cx="59" cy="601" r="2" fill="#F1CE51" fill-opacity="0.3"/>
<circle cx="78" cy="601" r="2" fill="#F1CE51" fill-opacity="0.3"/>
<circle cx="97" cy="601" r="2" fill="#F1CE51" fill-opacity="0.3"/>
<circle cx="116" cy="601" r="2" fill="#F1CE51" fill-opacity="0.3"/>
<circle cx="135" cy="601" r="2" fill="#F1CE51" fill-opacity="0.3"/>
<circle cx="154" cy="601" r="2" fill="#F1CE51" fill-opacity="0.3"/>
<circle cx="173" cy="601" r="2" fill="#F1CE51" fill-opacity="0.3"/>
<circle cx="192" cy="601" r="2" fill="#F1CE51" fill-opacity="0.3"/>
<circle cx="211" cy="601" r="2" fill="#F1CE51" fill-opacity="0.3"/>
<circle cx="230" cy="601" r="2" fill="#F1CE51" fill-opacity="0.3"/>
<circle cx="249" cy="601" r="2" fill="#F1CE51" fill-opacity="0.3"/>
<circle cx="268" cy="601" r="2" fill="#F1CE51" fill-opacity="0.3"/>
<circle cx="2" cy="620" r="2" fill="#F1CE51" fill-opacity="0.3"/>
<circle cx="21" cy="620" r="2" fill="#F1CE51" fill-opacity="0.3"/>
<circle cx="40" cy="620" r="2" fill="#F1CE51" fill-opacity="0.3"/>
<circle cx="59" cy="620" r="2" fill="#F1CE51" fill-opacity="0.3"/>
<circle cx="78" cy="620" r="2" fill="#F1CE51" fill-opacity="0.3"/>
<circle cx="97" cy="620" r="2" fill="#F1CE51" fill-opacity="0.3"/>
<circle cx="116" cy="620" r="2" fill="#F1CE51" fill-opacity="0.3"/>
<circle cx="135" cy="620" r="2" fill="#F1CE51" fill-opacity="0.3"/>
<circle cx="154" cy="620" r="2" fill="#F1CE51" fill-opacity="0.3"/>
<circle cx="173" cy="620" r="2" fill="#F1CE51" fill-opacity="0.3"/>
<circle cx="192" cy="620" r="2" fill="#F1CE51" fill-opacity="0.3"/>
<circle cx="211" cy="620" r="2" fill="#F1CE51" fill-opacity="0.3"/>
<circle cx="230" cy="620" r="2" fill="#F1CE51" fill-opacity="0.3"/>
<circle cx="249" cy="620" r="2" fill="#F1CE51" fill-opacity="0.3"/>
<circle cx="268" cy="620" r="2" fill="#F1CE51" fill-opacity="0.3"/>
<circle cx="2" cy="639" r="2" fill="#F1CE51" fill-opacity="0.3"/>
<circle cx="21" cy="639" r="2" fill="#F1CE51" fill-opacity="0.3"/>
<circle cx="40" cy="639" r="2" fill="#F1CE51" fill-opacity="0.3"/>
<circle cx="59" cy="639" r="2" fill="#F1CE51" fill-opacity="0.3"/>
<circle cx="78" cy="639" r="2" fill="#F1CE51" fill-opacity="0.3"/>
<circle cx="97" cy="639" r="2" fill="#F1CE51" fill-opacity="0.3"/>
<circle cx="116" cy="639" r="2" fill="#F1CE51" fill-opacity="0.3"/>
<circle cx="135" cy="639" r="2" fill="#F1CE51" fill-opacity="0.3"/>
<circle cx="154" cy="639" r="2" fill="#F1CE51" fill-opacity="0.3"/>
<circle cx="173" cy="639" r="2" fill="#F1CE51" fill-opacity="0.3"/>
<circle cx="192" cy="639" r="2" fill="#F1CE51" fill-opacity="0.3"/>
<circle cx="211" cy="639" r="2" fill="#F1CE51" fill-opacity="0.3"/>
<circle cx="230" cy="639" r="2" fill="#F1CE51" fill-opacity="0.3"/>
<circle cx="249" cy="639" r="2" fill="#F1CE51" fill-opacity="0.3"/>
<circle cx="268" cy="639" r="2" fill="#F1CE51" fill-opacity="0.3"/>
<circle cx="2" cy="658" r="2" fill="#F1CE51" fill-opacity="0.3"/>
<circle cx="21" cy="658" r="2" fill="#F1CE51" fill-opacity="0.3"/>
<circle cx="40" cy="658" r="2" fill="#F1CE51" fill-opacity="0.3"/>
<circle cx="59" cy="658" r="2" fill="#F1CE51" fill-opacity="0.3"/>
<circle cx="78" cy="658" r="2" fill="#F1CE51" fill-opacity="0.3"/>
<circle cx="97" cy="658" r="2" fill="#F1CE51" fill-opacity="0.3"/>
<circle cx="116" cy="658" r="2" fill="#F1CE51" fill-opacity="0.3"/>
<circle cx="135" cy="658" r="2" fill="#F1CE51" fill-opacity="0.3"/>
<circle cx="154" cy="658" r="2" fill="#F1CE51" fill-opacity="0.3"/>
<circle cx="173" cy="658" r="2" fill="#F1CE51" fill-opacity="0.3"/>
<circle cx="192" cy="658" r="2" fill="#F1CE51" fill-opacity="0.3"/>
<circle cx="211" cy="658" r="2" fill="#F1CE51" fill-opacity="0.3"/>
<circle cx="230" cy="658" r="2" fill="#F1CE51" fill-opacity="0.3"/>
<circle cx="249" cy="658" r="2" fill="#F1CE51" fill-opacity="0.3"/>
<circle cx="268" cy="658" r="2" fill="#F1CE51" fill-opacity="0.3"/>
<circle cx="2" cy="677" r="2" fill="#F1CE51" fill-opacity="0.3"/>
<circle cx="21" cy="677" r="2" fill="#F1CE51" fill-opacity="0.3"/>
<circle cx="40" cy="677" r="2" fill="#F1CE51" fill-opacity="0.3"/>
<circle cx="59" cy="677" r="2" fill="#F1CE51" fill-opacity="0.3"/>
<circle cx="78" cy="677" r="2" fill="#F1CE51" fill-opacity="0.3"/>
<circle cx="97" cy="677" r="2" fill="#F1CE51" fill-opacity="0.3"/>
<circle cx="116" cy="677" r="2" fill="#F1CE51" fill-opacity="0.3"/>
<circle cx="135" cy="677" r="2" fill="#F1CE51" fill-opacity="0.3"/>
<circle cx="154" cy="677" r="2" fill="#F1CE51" fill-opacity="0.3"/>
<circle cx="173" cy="677" r="2" fill="#F1CE51" fill-opacity="0.3"/>
<circle cx="192" cy="677" r="2" fill="#F1CE51" fill-opacity="0.3"/>
<circle cx="211" cy="677" r="2" fill="#F1CE51" fill-opacity="0.3"/>
<circle cx="230" cy="677" r="2" fill="#F1CE51" fill-opacity="0.3"/>
<circle cx="249" cy="677" r="2" fill="#F1CE51" fill-opacity="0.3"/>
<circle cx="268" cy="677" r="2" fill="#F1CE51" fill-opacity="0.3"/>
</g>
<g clip-path="url(#clip1)">
<circle cx="1674" cy="8" r="2" fill="#F1CE51" fill-opacity="0.3"/>
<circle cx="1693" cy="8" r="2" fill="#F1CE51" fill-opacity="0.3"/>
<circle cx="1712" cy="8" r="2" fill="#F1CE51" fill-opacity="0.3"/>
<circle cx="1731" cy="8" r="2" fill="#F1CE51" fill-opacity="0.3"/>
<circle cx="1750" cy="8" r="2" fill="#F1CE51" fill-opacity="0.3"/>
<circle cx="1769" cy="8" r="2" fill="#F1CE51" fill-opacity="0.3"/>
<circle cx="1788" cy="8" r="2" fill="#F1CE51" fill-opacity="0.3"/>
<circle cx="1807" cy="8" r="2" fill="#F1CE51" fill-opacity="0.3"/>
<circle cx="1826" cy="8" r="2" fill="#F1CE51" fill-opacity="0.3"/>
<circle cx="1845" cy="8" r="2" fill="#F1CE51" fill-opacity="0.3"/>
<circle cx="1864" cy="8" r="2" fill="#F1CE51" fill-opacity="0.3"/>
<circle cx="1883" cy="8" r="2" fill="#F1CE51" fill-opacity="0.3"/>
<circle cx="1902" cy="8" r="2" fill="#F1CE51" fill-opacity="0.3"/>
<circle cx="1674" cy="27" r="2" fill="#F1CE51" fill-opacity="0.3"/>
<circle cx="1693" cy="27" r="2" fill="#F1CE51" fill-opacity="0.3"/>
<circle cx="1712" cy="27" r="2" fill="#F1CE51" fill-opacity="0.3"/>
<circle cx="1731" cy="27" r="2" fill="#F1CE51" fill-opacity="0.3"/>
<circle cx="1750" cy="27" r="2" fill="#F1CE51" fill-opacity="0.3"/>
<circle cx="1769" cy="27" r="2" fill="#F1CE51" fill-opacity="0.3"/>
<circle cx="1788" cy="27" r="2" fill="#F1CE51" fill-opacity="0.3"/>
<circle cx="1807" cy="27" r="2" fill="#F1CE51" fill-opacity="0.3"/>
<circle cx="1826" cy="27" r="2" fill="#F1CE51" fill-opacity="0.3"/>
<circle cx="1845" cy="27" r="2" fill="#F1CE51" fill-opacity="0.3"/>
<circle cx="1864" cy="27" r="2" fill="#F1CE51" fill-opacity="0.3"/>
<circle cx="1883" cy="27" r="2" fill="#F1CE51" fill-opacity="0.3"/>
<circle cx="1902" cy="27" r="2" fill="#F1CE51" fill-opacity="0.3"/>
<circle cx="1674" cy="46" r="2" fill="#F1CE51" fill-opacity="0.3"/>
<circle cx="1693" cy="46" r="2" fill="#F1CE51" fill-opacity="0.3"/>
<circle cx="1712" cy="46" r="2" fill="#F1CE51" fill-opacity="0.3"/>
<circle cx="1731" cy="46" r="2" fill="#F1CE51" fill-opacity="0.3"/>
<circle cx="1750" cy="46" r="2" fill="#F1CE51" fill-opacity="0.3"/>
<circle cx="1769" cy="46" r="2" fill="#F1CE51" fill-opacity="0.3"/>
<circle cx="1788" cy="46" r="2" fill="#F1CE51" fill-opacity="0.3"/>
<circle cx="1807" cy="46" r="2" fill="#F1CE51" fill-opacity="0.3"/>
<circle cx="1826" cy="46" r="2" fill="#F1CE51" fill-opacity="0.3"/>
<circle cx="1845" cy="46" r="2" fill="#F1CE51" fill-opacity="0.3"/>
<circle cx="1864" cy="46" r="2" fill="#F1CE51" fill-opacity="0.3"/>
<circle cx="1883" cy="46" r="2" fill="#F1CE51" fill-opacity="0.3"/>
<circle cx="1902" cy="46" r="2" fill="#F1CE51" fill-opacity="0.3"/>
<circle cx="1674" cy="65" r="2" fill="#F1CE51" fill-opacity="0.3"/>
<circle cx="1693" cy="65" r="2" fill="#F1CE51" fill-opacity="0.3"/>
<circle cx="1712" cy="65" r="2" fill="#F1CE51" fill-opacity="0.3"/>
<circle cx="1731" cy="65" r="2" fill="#F1CE51" fill-opacity="0.3"/>
<circle cx="1750" cy="65" r="2" fill="#F1CE51" fill-opacity="0.3"/>
<circle cx="1769" cy="65" r="2" fill="#F1CE51" fill-opacity="0.3"/>
<circle cx="1788" cy="65" r="2" fill="#F1CE51" fill-opacity="0.3"/>
<circle cx="1807" cy="65" r="2" fill="#F1CE51" fill-opacity="0.3"/>
<circle cx="1826" cy="65" r="2" fill="#F1CE51" fill-opacity="0.3"/>
<circle cx="1845" cy="65" r="2" fill="#F1CE51" fill-opacity="0.3"/>
<circle cx="1864" cy="65" r="2" fill="#F1CE51" fill-opacity="0.3"/>
<circle cx="1883" cy="65" r="2" fill="#F1CE51" fill-opacity="0.3"/>
<circle cx="1902" cy="65" r="2" fill="#F1CE51" fill-opacity="0.3"/>
<circle cx="1674" cy="84" r="2" fill="#F1CE51" fill-opacity="0.3"/>
<circle cx="1693" cy="84" r="2" fill="#F1CE51" fill-opacity="0.3"/>
<circle cx="1712" cy="84" r="2" fill="#F1CE51" fill-opacity="0.3"/>
<circle cx="1731" cy="84" r="2" fill="#F1CE51" fill-opacity="0.3"/>
<circle cx="1750" cy="84" r="2" fill="#F1CE51" fill-opacity="0.3"/>
<circle cx="1769" cy="84" r="2" fill="#F1CE51" fill-opacity="0.3"/>
<circle cx="1788" cy="84" r="2" fill="#F1CE51" fill-opacity="0.3"/>
<circle cx="1807" cy="84" r="2" fill="#F1CE51" fill-opacity="0.3"/>
<circle cx="1826" cy="84" r="2" fill="#F1CE51" fill-opacity="0.3"/>
<circle cx="1845" cy="84" r="2" fill="#F1CE51" fill-opacity="0.3"/>
<circle cx="1864" cy="84" r="2" fill="#F1CE51" fill-opacity="0.3"/>
<circle cx="1883" cy="84" r="2" fill="#F1CE51" fill-opacity="0.3"/>
<circle cx="1902" cy="84" r="2" fill="#F1CE51" fill-opacity="0.3"/>
<circle cx="1674" cy="103" r="2" fill="#F1CE51" fill-opacity="0.3"/>
<circle cx="1693" cy="103" r="2" fill="#F1CE51" fill-opacity="0.3"/>
<circle cx="1712" cy="103" r="2" fill="#F1CE51" fill-opacity="0.3"/>
<circle cx="1731" cy="103" r="2" fill="#F1CE51" fill-opacity="0.3"/>
<circle cx="1750" cy="103" r="2" fill="#F1CE51" fill-opacity="0.3"/>
<circle cx="1769" cy="103" r="2" fill="#F1CE51" fill-opacity="0.3"/>
<circle cx="1788" cy="103" r="2" fill="#F1CE51" fill-opacity="0.3"/>
<circle cx="1807" cy="103" r="2" fill="#F1CE51" fill-opacity="0.3"/>
<circle cx="1826" cy="103" r="2" fill="#F1CE51" fill-opacity="0.3"/>
<circle cx="1845" cy="103" r="2" fill="#F1CE51" fill-opacity="0.3"/>
<circle cx="1864" cy="103" r="2" fill="#F1CE51" fill-opacity="0.3"/>
<circle cx="1883" cy="103" r="2" fill="#F1CE51" fill-opacity="0.3"/>
<circle cx="1902" cy="103" r="2" fill="#F1CE51" fill-opacity="0.3"/>
<circle cx="1674" cy="122" r="2" fill="#F1CE51" fill-opacity="0.3"/>
<circle cx="1693" cy="122" r="2" fill="#F1CE51" fill-opacity="0.3"/>
<circle cx="1712" cy="122" r="2" fill="#F1CE51" fill-opacity="0.3"/>
<circle cx="1731" cy="122" r="2" fill="#F1CE51" fill-opacity="0.3"/>
<circle cx="1750" cy="122" r="2" fill="#F1CE51" fill-opacity="0.3"/>
<circle cx="1769" cy="122" r="2" fill="#F1CE51" fill-opacity="0.3"/>
<circle cx="1788" cy="122" r="2" fill="#F1CE51" fill-opacity="0.3"/>
<circle cx="1807" cy="122" r="2" fill="#F1CE51" fill-opacity="0.3"/>
<circle cx="1826" cy="122" r="2" fill="#F1CE51" fill-opacity="0.3"/>
<circle cx="1845" cy="122" r="2" fill="#F1CE51" fill-opacity="0.3"/>
<circle cx="1864" cy="122" r="2" fill="#F1CE51" fill-opacity="0.3"/>
<circle cx="1883" cy="122" r="2" fill="#F1CE51" fill-opacity="0.3"/>
<circle cx="1902" cy="122" r="2" fill="#F1CE51" fill-opacity="0.3"/>
<circle cx="1674" cy="141" r="2" fill="#F1CE51" fill-opacity="0.3"/>
<circle cx="1693" cy="141" r="2" fill="#F1CE51" fill-opacity="0.3"/>
<circle cx="1712" cy="141" r="2" fill="#F1CE51" fill-opacity="0.3"/>
<circle cx="1731" cy="141" r="2" fill="#F1CE51" fill-opacity="0.3"/>
<circle cx="1750" cy="141" r="2" fill="#F1CE51" fill-opacity="0.3"/>
<circle cx="1769" cy="141" r="2" fill="#F1CE51" fill-opacity="0.3"/>
<circle cx="1788" cy="141" r="2" fill="#F1CE51" fill-opacity="0.3"/>
<circle cx="1807" cy="141" r="2" fill="#F1CE51" fill-opacity="0.3"/>
<circle cx="1826" cy="141" r="2" fill="#F1CE51" fill-opacity="0.3"/>
<circle cx="1845" cy="141" r="2" fill="#F1CE51" fill-opacity="0.3"/>
<circle cx="1864" cy="141" r="2" fill="#F1CE51" fill-opacity="0.3"/>
<circle cx="1883" cy="141" r="2" fill="#F1CE51" fill-opacity="0.3"/>
<circle cx="1902" cy="141" r="2" fill="#F1CE51" fill-opacity="0.3"/>
<circle cx="1674" cy="160" r="2" fill="#F1CE51" fill-opacity="0.3"/>
<circle cx="1693" cy="160" r="2" fill="#F1CE51" fill-opacity="0.3"/>
<circle cx="1712" cy="160" r="2" fill="#F1CE51" fill-opacity="0.3"/>
<circle cx="1731" cy="160" r="2" fill="#F1CE51" fill-opacity="0.3"/>
<circle cx="1750" cy="160" r="2" fill="#F1CE51" fill-opacity="0.3"/>
<circle cx="1769" cy="160" r="2" fill="#F1CE51" fill-opacity="0.3"/>
<circle cx="1788" cy="160" r="2" fill="#F1CE51" fill-opacity="0.3"/>
<circle cx="1807" cy="160" r="2" fill="#F1CE51" fill-opacity="0.3"/>
<circle cx="1826" cy="160" r="2" fill="#F1CE51" fill-opacity="0.3"/>
<circle cx="1845" cy="160" r="2" fill="#F1CE51" fill-opacity="0.3"/>
<circle cx="1864" cy="160" r="2" fill="#F1CE51" fill-opacity="0.3"/>
<circle cx="1883" cy="160" r="2" fill="#F1CE51" fill-opacity="0.3"/>
<circle cx="1902" cy="160" r="2" fill="#F1CE51" fill-opacity="0.3"/>
<circle cx="1674" cy="179" r="2" fill="#F1CE51" fill-opacity="0.3"/>
<circle cx="1693" cy="179" r="2" fill="#F1CE51" fill-opacity="0.3"/>
<circle cx="1712" cy="179" r="2" fill="#F1CE51" fill-opacity="0.3"/>
<circle cx="1731" cy="179" r="2" fill="#F1CE51" fill-opacity="0.3"/>
<circle cx="1750" cy="179" r="2" fill="#F1CE51" fill-opacity="0.3"/>
<circle cx="1769" cy="179" r="2" fill="#F1CE51" fill-opacity="0.3"/>
<circle cx="1788" cy="179" r="2" fill="#F1CE51" fill-opacity="0.3"/>
<circle cx="1807" cy="179" r="2" fill="#F1CE51" fill-opacity="0.3"/>
<circle cx="1826" cy="179" r="2" fill="#F1CE51" fill-opacity="0.3"/>
<circle cx="1845" cy="179" r="2" fill="#F1CE51" fill-opacity="0.3"/>
<circle cx="1864" cy="179" r="2" fill="#F1CE51" fill-opacity="0.3"/>
<circle cx="1883" cy="179" r="2" fill="#F1CE51" fill-opacity="0.3"/>
<circle cx="1902" cy="179" r="2" fill="#F1CE51" fill-opacity="0.3"/>
<circle cx="1674" cy="198" r="2" fill="#F1CE51" fill-opacity="0.3"/>
<circle cx="1693" cy="198" r="2" fill="#F1CE51" fill-opacity="0.3"/>
<circle cx="1712" cy="198" r="2" fill="#F1CE51" fill-opacity="0.3"/>
<circle cx="1731" cy="198" r="2" fill="#F1CE51" fill-opacity="0.3"/>
<circle cx="1750" cy="198" r="2" fill="#F1CE51" fill-opacity="0.3"/>
<circle cx="1769" cy="198" r="2" fill="#F1CE51" fill-opacity="0.3"/>
<circle cx="1788" cy="198" r="2" fill="#F1CE51" fill-opacity="0.3"/>
<circle cx="1807" cy="198" r="2" fill="#F1CE51" fill-opacity="0.3"/>
<circle cx="1826" cy="198" r="2" fill="#F1CE51" fill-opacity="0.3"/>
<circle cx="1845" cy="198" r="2" fill="#F1CE51" fill-opacity="0.3"/>
<circle cx="1864" cy="198" r="2" fill="#F1CE51" fill-opacity="0.3"/>
<circle cx="1883" cy="198" r="2" fill="#F1CE51" fill-opacity="0.3"/>
<circle cx="1902" cy="198" r="2" fill="#F1CE51" fill-opacity="0.3"/>
<circle cx="1674" cy="217" r="2" fill="#F1CE51" fill-opacity="0.3"/>
<circle cx="1693" cy="217" r="2" fill="#F1CE51" fill-opacity="0.3"/>
<circle cx="1712" cy="217" r="2" fill="#F1CE51" fill-opacity="0.3"/>
<circle cx="1731" cy="217" r="2" fill="#F1CE51" fill-opacity="0.3"/>
<circle cx="1750" cy="217" r="2" fill="#F1CE51" fill-opacity="0.3"/>
<circle cx="1769" cy="217" r="2" fill="#F1CE51" fill-opacity="0.3"/>
<circle cx="1788" cy="217" r="2" fill="#F1CE51" fill-opacity="0.3"/>
<circle cx="1807" cy="217" r="2" fill="#F1CE51" fill-opacity="0.3"/>
<circle cx="1826" cy="217" r="2" fill="#F1CE51" fill-opacity="0.3"/>
<circle cx="1845" cy="217" r="2" fill="#F1CE51" fill-opacity="0.3"/>
<circle cx="1864" cy="217" r="2" fill="#F1CE51" fill-opacity="0.3"/>
<circle cx="1883" cy="217" r="2" fill="#F1CE51" fill-opacity="0.3"/>
<circle cx="1902" cy="217" r="2" fill="#F1CE51" fill-opacity="0.3"/>
</g>
<defs>
<clipPath id="clip0">
<rect width="286" height="300" fill="white" transform="translate(0 390)"/>
</clipPath>
<clipPath id="clip1">
<rect width="244" height="230" fill="white" transform="translate(1672)"/>
</clipPath>
</defs>
</svg>
