<svg width="40" height="40" viewBox="0 0 40 40" fill="none" xmlns="http://www.w3.org/2000/svg">
<g clip-path="url(#clip0)">
<path d="M31.26 31.271H26.527V23.844C26.527 22.073 26.49 19.797 24.052 19.797C21.584 19.797 21.208 21.718 21.208 23.713V31.27H16.469V15.999H21.021V18.082H21.082C21.718 16.879 23.265 15.614 25.573 15.614C30.374 15.614 31.265 18.775 31.265 22.885V31.27L31.26 31.271ZM11.115 13.912C10.7533 13.9121 10.3951 13.8409 10.0609 13.7024C9.72677 13.5639 9.42323 13.3608 9.16769 13.1048C8.91214 12.8488 8.70961 12.5449 8.5717 12.2105C8.43379 11.876 8.36321 11.5177 8.364 11.156C8.36459 10.6116 8.52661 10.0795 8.82956 9.62713C9.13251 9.17475 9.5628 8.82236 10.066 8.61451C10.5692 8.40666 11.1228 8.35269 11.6567 8.45941C12.1905 8.56614 12.6808 8.82877 13.0654 9.2141C13.4501 9.59944 13.7118 10.0902 13.8176 10.6242C13.9233 11.1583 13.8683 11.7118 13.6596 12.2146C13.4508 12.7174 13.0976 13.1471 12.6447 13.4492C12.1918 13.7513 11.6594 13.9124 11.115 13.912ZM13.489 31.271H8.74V16H13.489V31.271ZM33.636 4H6.36C5.057 4 4 5.031 4 6.307V33.694C4 34.97 5.057 36.001 6.36 36.001H33.631C34.932 36.001 36 34.97 36 33.694V6.307C36 5.031 34.932 4 33.631 4H33.636Z" fill="#F1CE51"/>
</g>
<defs>
<clipPath id="clip0">
<rect width="32" height="32" fill="white" transform="translate(4 4)"/>
</clipPath>
</defs>
</svg>
